<svg xmlns="http://www.w3.org/2000/svg" xmlns:xlink="http://www.w3.org/1999/xlink" viewBox="0 0 479.01 331.22"><defs><style>.cls-1,.cls-10,.cls-11,.cls-12,.cls-13,.cls-14,.cls-31,.cls-34,.cls-37,.cls-40,.cls-43,.cls-5,.cls-6,.cls-7,.cls-8,.cls-9{fill:none;}.cls-2{isolation:isolate;}.cls-3{fill:url(#radial-gradient);}.cls-4{clip-path:url(#clip-path);}.cls-10,.cls-11,.cls-12,.cls-13,.cls-14,.cls-31,.cls-34,.cls-37,.cls-40,.cls-43,.cls-5,.cls-6,.cls-7,.cls-8,.cls-9{stroke-miterlimit:10;}.cls-5{stroke-width:0.5px;stroke:url(#linear-gradient);}.cls-6{stroke-width:0.67px;stroke:url(#linear-gradient-2);}.cls-7{stroke-width:0.83px;stroke:url(#linear-gradient-3);}.cls-8{stroke:url(#linear-gradient-4);}.cls-9{stroke-width:1.17px;stroke:url(#linear-gradient-5);}.cls-10{stroke-width:1.33px;stroke:url(#linear-gradient-6);}.cls-11{stroke-width:1.5px;stroke:url(#linear-gradient-7);}.cls-12{stroke-width:1.67px;stroke:url(#linear-gradient-8);}.cls-13{stroke-width:1.83px;stroke:url(#linear-gradient-9);}.cls-14,.cls-34{stroke-width:2px;}.cls-14{stroke:url(#linear-gradient-10);}.cls-15,.cls-27,.cls-29,.cls-32,.cls-35,.cls-38,.cls-41{mix-blend-mode:multiply;}.cls-15{fill:url(#radial-gradient-2);}.cls-16,.cls-28,.cls-30,.cls-33,.cls-36,.cls-39,.cls-42{opacity:0.75;}.cls-16,.cls-28,.cls-30,.cls-33,.cls-36,.cls-39,.cls-42,.cls-44,.cls-55{mix-blend-mode:overlay;}.cls-16{fill:url(#radial-gradient-3);}.cls-17{fill:url(#linear-gradient-11);}.cls-18{fill:url(#linear-gradient-12);}.cls-19{fill:url(#linear-gradient-13);}.cls-20{fill:url(#linear-gradient-14);}.cls-21{fill:url(#linear-gradient-15);}.cls-22{fill:url(#linear-gradient-16);}.cls-23{fill:url(#linear-gradient-17);}.cls-24{fill:url(#linear-gradient-18);}.cls-25{fill:url(#linear-gradient-19);}.cls-26{fill:url(#linear-gradient-20);}.cls-27{fill:url(#radial-gradient-4);}.cls-28{fill:url(#radial-gradient-5);}.cls-29{fill:url(#radial-gradient-6);}.cls-30{fill:url(#radial-gradient-7);}.cls-31{stroke:url(#linear-gradient-21);}.cls-32{fill:url(#radial-gradient-8);}.cls-33{fill:url(#radial-gradient-9);}.cls-34{stroke:url(#linear-gradient-22);}.cls-35{fill:url(#radial-gradient-10);}.cls-36{fill:url(#radial-gradient-11);}.cls-37{stroke:url(#linear-gradient-23);}.cls-38{fill:url(#radial-gradient-12);}.cls-39{fill:url(#radial-gradient-13);}.cls-40,.cls-43{stroke-width:0.75px;}.cls-40{stroke:url(#linear-gradient-24);}.cls-41{fill:url(#radial-gradient-14);}.cls-42{fill:url(#radial-gradient-15);}.cls-43{stroke:url(#linear-gradient-25);}.cls-44,.cls-55{opacity:0.6;}.cls-44{fill:url(#linear-gradient-26);}.cls-45,.cls-50{opacity:0.5;}.cls-45,.cls-46,.cls-47,.cls-50{mix-blend-mode:hard-light;}.cls-45{fill:url(#linear-gradient-27);}.cls-46{opacity:0.3;fill:url(#linear-gradient-28);}.cls-48{fill:url(#linear-gradient-29);}.cls-49{fill:url(#linear-gradient-30);}.cls-51{fill:url(#linear-gradient-31);}.cls-52{fill:url(#linear-gradient-32);}.cls-53{fill:url(#linear-gradient-33);}.cls-54{fill:url(#linear-gradient-34);}.cls-55{fill:url(#linear-gradient-35);}</style><radialGradient id="radial-gradient" cx="475.56" cy="-13.82" r="579.32" gradientTransform="matrix(0.98, -0.18, 0.13, 0.71, 9.15, 79.55)" gradientUnits="userSpaceOnUse"><stop offset="0" stop-color="#4f40d4"/><stop offset="0.13" stop-color="#422cc2"/><stop offset="0.31" stop-color="#3315af"/><stop offset="0.42" stop-color="#2e0da8"/><stop offset="0.43" stop-color="#2e0da7"/><stop offset="0.63" stop-color="#270482"/><stop offset="0.74" stop-color="#250074"/><stop offset="0.82" stop-color="#1f0379"/><stop offset="0.93" stop-color="#0f0c86"/><stop offset="1" stop-color="#001492"/></radialGradient><clipPath id="clip-path"><rect class="cls-1" x="26.3" y="31.15" width="426.52" height="253.19"/></clipPath><linearGradient id="linear-gradient" x1="298.98" y1="226.01" x2="479.01" y2="226.01" gradientTransform="translate(273.75 -208.86) rotate(45)" gradientUnits="userSpaceOnUse"><stop offset="0" stop-color="#4f02d4"/><stop offset="0.02" stop-color="#4c09d3"/><stop offset="0.19" stop-color="#314ac9"/><stop offset="0.34" stop-color="#1c7dc2"/><stop offset="0.47" stop-color="#0da1bd"/><stop offset="0.58" stop-color="#03b8b9"/><stop offset="0.65" stop-color="#00c0b8"/><stop offset="1" stop-color="#2e69ff"/></linearGradient><linearGradient id="linear-gradient-2" x1="307.17" y1="226.01" x2="470.82" y2="226.01" gradientTransform="matrix(1, 0, 0, 1, 0, 0)" xlink:href="#linear-gradient"/><linearGradient id="linear-gradient-3" x1="315.35" y1="226.01" x2="462.64" y2="226.01" gradientTransform="translate(515.88 -205.61) rotate(76.22)" xlink:href="#linear-gradient"/><linearGradient id="linear-gradient-4" x1="323.54" y1="226.01" x2="454.46" y2="226.01" gradientTransform="translate(522.34 -203.66) rotate(77.08)" xlink:href="#linear-gradient"/><linearGradient id="linear-gradient-5" x1="331.72" y1="226.01" x2="446.27" y2="226.01" gradientTransform="matrix(1, 0, 0, 1, 0, 0)" xlink:href="#linear-gradient"/><linearGradient id="linear-gradient-6" x1="339.91" y1="226.01" x2="438.09" y2="226.01" gradientTransform="translate(550.79 -193.77) rotate(80.92)" xlink:href="#linear-gradient"/><linearGradient id="linear-gradient-7" x1="348.09" y1="226.01" x2="429.9" y2="226.01" gradientTransform="translate(521.31 -203.98) rotate(76.95)" xlink:href="#linear-gradient"/><linearGradient id="linear-gradient-8" x1="356.27" y1="226.01" x2="421.72" y2="226.01" gradientTransform="translate(119.04 -133.88) rotate(22.97)" xlink:href="#linear-gradient"/><linearGradient id="linear-gradient-9" x1="364.46" y1="226.01" x2="413.53" y2="226.01" gradientTransform="matrix(1, 0, 0, 1, 0, 0)" xlink:href="#linear-gradient"/><linearGradient id="linear-gradient-10" x1="372.64" y1="226.01" x2="405.35" y2="226.01" gradientTransform="translate(513.81 -206.21) rotate(75.95)" xlink:href="#linear-gradient"/><radialGradient id="radial-gradient-2" cx="380.16" cy="243.04" r="66.57" gradientTransform="translate(521.13 -182.98) rotate(75.44)" gradientUnits="userSpaceOnUse"><stop offset="0" stop-color="#4f40d4"/><stop offset="0.19" stop-color="#4632c8" stop-opacity="0.72"/><stop offset="0.4" stop-color="#3d25bd" stop-opacity="0.47"/><stop offset="0.59" stop-color="#371bb4" stop-opacity="0.27"/><stop offset="0.76" stop-color="#3213ad" stop-opacity="0.12"/><stop offset="0.9" stop-color="#2f0fa9" stop-opacity="0.03"/><stop offset="1" stop-color="#2e0da8" stop-opacity="0"/></radialGradient><radialGradient id="radial-gradient-3" cx="394.67" cy="220.52" r="57.26" gradientTransform="translate(528.57 -208.93) rotate(77.89)" gradientUnits="userSpaceOnUse"><stop offset="0" stop-color="#fff"/><stop offset="0.09" stop-color="#fff" stop-opacity="0.87"/><stop offset="0.28" stop-color="#fff" stop-opacity="0.61"/><stop offset="0.47" stop-color="#fff" stop-opacity="0.39"/><stop offset="0.63" stop-color="#fff" stop-opacity="0.22"/><stop offset="0.78" stop-color="#fff" stop-opacity="0.1"/><stop offset="0.91" stop-color="#fff" stop-opacity="0.03"/><stop offset="1" stop-color="#fff" stop-opacity="0"/></radialGradient><linearGradient id="linear-gradient-11" x1="174.37" y1="133.16" x2="344.36" y2="133.16" gradientUnits="userSpaceOnUse"><stop offset="0" stop-color="#1902fc"/><stop offset="0.15" stop-color="#481dfd"/><stop offset="0.38" stop-color="#8942fd"/><stop offset="0.58" stop-color="#bc5ffe"/><stop offset="0.76" stop-color="#e074ff"/><stop offset="0.91" stop-color="#f780ff"/><stop offset="1" stop-color="#ff85ff"/></linearGradient><linearGradient id="linear-gradient-12" x1="182" y1="133.16" x2="336.74" y2="133.16" xlink:href="#linear-gradient-11"/><linearGradient id="linear-gradient-13" x1="189.54" y1="133.15" x2="329.11" y2="133.15" xlink:href="#linear-gradient-11"/><linearGradient id="linear-gradient-14" x1="197.26" y1="133.15" x2="321.5" y2="133.15" xlink:href="#linear-gradient-11"/><linearGradient id="linear-gradient-15" x1="204.9" y1="133.16" x2="313.88" y2="133.16" xlink:href="#linear-gradient-11"/><linearGradient id="linear-gradient-16" x1="212.4" y1="133.16" x2="306.25" y2="133.16" xlink:href="#linear-gradient-11"/><linearGradient id="linear-gradient-17" x1="220.18" y1="133.15" x2="298.64" y2="133.15" xlink:href="#linear-gradient-11"/><linearGradient id="linear-gradient-18" x1="227.83" y1="133.16" x2="291.02" y2="133.16" xlink:href="#linear-gradient-11"/><linearGradient id="linear-gradient-19" x1="235.26" y1="133.16" x2="283.39" y2="133.16" xlink:href="#linear-gradient-11"/><linearGradient id="linear-gradient-20" x1="243.29" y1="133.15" x2="275.77" y2="133.15" xlink:href="#linear-gradient-11"/><radialGradient id="radial-gradient-4" cx="244.86" cy="159.17" r="84.57" gradientTransform="matrix(1, 0, 0, 1, 0, 0)" xlink:href="#radial-gradient-2"/><radialGradient id="radial-gradient-5" cx="263.29" cy="130.56" r="72.74" gradientTransform="matrix(1, 0, 0, 1, 0, 0)" xlink:href="#radial-gradient-3"/><radialGradient id="radial-gradient-6" cx="343.13" cy="71.28" r="19.84" gradientTransform="matrix(1, 0, 0, 1, 0, 0)" xlink:href="#radial-gradient-2"/><radialGradient id="radial-gradient-7" cx="347.46" cy="64.57" r="17.07" gradientTransform="translate(65.07 -147.39) rotate(26.37)" xlink:href="#radial-gradient-3"/><linearGradient id="linear-gradient-21" x1="336.94" y1="75.28" x2="355.73" y2="56.48" gradientUnits="userSpaceOnUse"><stop offset="0" stop-color="#4700eb"/><stop offset="0.11" stop-color="#4e02e6"/><stop offset="0.27" stop-color="#6309d9"/><stop offset="0.47" stop-color="#8414c4"/><stop offset="0.69" stop-color="#b224a7"/><stop offset="0.93" stop-color="#ed3782"/><stop offset="1" stop-color="#ff3d76"/></linearGradient><radialGradient id="radial-gradient-8" cx="179.66" cy="250.76" r="17" gradientTransform="translate(396.96 32.32) rotate(80.32)" xlink:href="#radial-gradient-2"/><radialGradient id="radial-gradient-9" cx="183.36" cy="245.01" r="14.62" gradientTransform="matrix(1, 0, 0, 1, 0, 0)" xlink:href="#radial-gradient-3"/><linearGradient id="linear-gradient-22" x1="176.44" y1="252.09" x2="188.36" y2="240.18" gradientUnits="userSpaceOnUse"><stop offset="0" stop-color="#4f02d4"/><stop offset="0.2" stop-color="#462ee0"/><stop offset="0.47" stop-color="#3c61ed"/><stop offset="0.7" stop-color="#3485f7"/><stop offset="0.88" stop-color="#309cfd"/><stop offset="1" stop-color="#2ea4ff"/></linearGradient><radialGradient id="radial-gradient-10" cx="257.79" cy="278.79" r="50.73" gradientTransform="matrix(1, 0, 0, 1, 0, 0)" xlink:href="#radial-gradient-2"/><radialGradient id="radial-gradient-11" cx="268.85" cy="261.63" r="43.64" gradientTransform="matrix(1, 0, 0, 1, 0, 0)" xlink:href="#radial-gradient-3"/><linearGradient id="linear-gradient-23" x1="244.26" y1="286.69" x2="287.68" y2="243.27" gradientTransform="translate(461.77 -55.36) rotate(76.54)" xlink:href="#linear-gradient-21"/><radialGradient id="radial-gradient-12" cx="427.94" cy="88.24" r="20.18" gradientTransform="matrix(1, 0, 0, 1, 0, 0)" xlink:href="#radial-gradient-2"/><radialGradient id="radial-gradient-13" cx="432.34" cy="81.41" r="17.36" gradientTransform="matrix(1, 0, 0, 1, 0, 0)" xlink:href="#radial-gradient-3"/><linearGradient id="linear-gradient-24" x1="406.72" y1="82.03" x2="457.28" y2="82.03" gradientUnits="userSpaceOnUse"><stop offset="0" stop-color="#4f02d4"/><stop offset="0.25" stop-color="#8930e2"/><stop offset="0.5" stop-color="#bc58ef"/><stop offset="0.71" stop-color="#e076f8"/><stop offset="0.89" stop-color="#f787fd"/><stop offset="1" stop-color="#ff8eff"/></linearGradient><radialGradient id="radial-gradient-14" cx="29.03" cy="95.35" r="28.54" gradientTransform="translate(76.48 8.09) rotate(45)" xlink:href="#radial-gradient-2"/><radialGradient id="radial-gradient-15" cx="35.25" cy="85.69" r="24.55" gradientTransform="matrix(1, 0, 0, 1, 0, 0)" xlink:href="#radial-gradient-3"/><linearGradient id="linear-gradient-25" x1="19.94" y1="89.55" x2="45.01" y2="89.55" xlink:href="#linear-gradient-24"/><linearGradient id="linear-gradient-26" x1="348" y1="136.37" x2="359.54" y2="124.82" gradientTransform="translate(404 -243.15) rotate(77.39)" gradientUnits="userSpaceOnUse"><stop offset="0" stop-color="#0f50fb"/><stop offset="0.17" stop-color="#0f50fb" stop-opacity="0.8"/><stop offset="0.48" stop-color="#0f50fb" stop-opacity="0.46"/><stop offset="0.72" stop-color="#0f50fb" stop-opacity="0.21"/><stop offset="0.91" stop-color="#0f50fb" stop-opacity="0.06"/><stop offset="1" stop-color="#0f50fb" stop-opacity="0"/></linearGradient><linearGradient id="linear-gradient-27" x1="298.8" y1="206.74" x2="321.69" y2="183.85" xlink:href="#linear-gradient-21"/><linearGradient id="linear-gradient-28" x1="168.85" y1="112.98" x2="197.3" y2="84.53" gradientTransform="translate(248.39 -98.74) rotate(79.96)" xlink:href="#linear-gradient-21"/><linearGradient id="linear-gradient-29" x1="434.47" y1="126.33" x2="440.54" y2="120.26" gradientTransform="translate(155.75 -292.9) rotate(45)" gradientUnits="userSpaceOnUse"><stop offset="0" stop-color="#0f50fb"/><stop offset="0.3" stop-color="#0f50fb" stop-opacity="0.76"/><stop offset="0.63" stop-color="#0f50fb" stop-opacity="0.51"/><stop offset="0.87" stop-color="#0f50fb" stop-opacity="0.36"/><stop offset="1" stop-color="#0f50fb" stop-opacity="0.3"/></linearGradient><linearGradient id="linear-gradient-30" x1="130.28" y1="-174.72" x2="136.35" y2="-180.79" gradientTransform="translate(346.51 -116.32) rotate(135)" xlink:href="#linear-gradient-29"/><linearGradient id="linear-gradient-31" x1="391.9" y1="313.29" x2="404.41" y2="300.78" gradientTransform="translate(155.75 -292.9) rotate(45)" xlink:href="#linear-gradient-21"/><linearGradient id="linear-gradient-32" x1="310.81" y1="-132.15" x2="323.32" y2="-144.66" gradientTransform="translate(346.51 -116.32) rotate(135)" xlink:href="#linear-gradient-21"/><linearGradient id="linear-gradient-33" x1="490.94" y1="115.98" x2="503.45" y2="103.47" gradientTransform="translate(155.75 -292.9) rotate(45)" xlink:href="#linear-gradient-21"/><linearGradient id="linear-gradient-34" x1="113.49" y1="-231.18" x2="126.01" y2="-243.7" gradientTransform="translate(346.51 -116.32) rotate(135)" xlink:href="#linear-gradient-21"/><linearGradient id="linear-gradient-35" x1="9.77" y1="144.71" x2="49.5" y2="104.98" gradientTransform="matrix(1, 0, 0, 1, 0, 0)" xlink:href="#linear-gradient-26"/></defs><title>Asset 1</title><g class="cls-2"><g id="Layer_2" data-name="Layer 2"><g id="OBJECTS"><rect class="cls-3" x="26.3" width="426.52" height="284.35"/><g class="cls-4"><circle class="cls-5" cx="389" cy="226.01" r="89.76" transform="translate(-45.88 341.26) rotate(-45)"/><circle class="cls-6" cx="389" cy="226.01" r="81.49"/><circle class="cls-7" cx="389" cy="226.01" r="73.23" transform="translate(76.85 550) rotate(-76.22)"/><circle class="cls-8" cx="389" cy="226.01" r="64.96" transform="translate(81.75 554.65) rotate(-77.08)"/><circle class="cls-9" cx="389" cy="226.01" r="56.69"/><circle class="cls-10" cx="389" cy="226.01" r="48.42" transform="translate(104.43 574.47) rotate(-80.92)"/><circle class="cls-11" cx="389" cy="226.01" r="40.16" transform="translate(80.96 553.91) rotate(-76.95)"/><circle class="cls-12" cx="389" cy="226.01" r="31.89" transform="translate(-57.36 169.72) rotate(-22.97)"/><circle class="cls-13" cx="389" cy="226.01" r="23.62"/><circle class="cls-14" cx="389" cy="226.01" r="15.35" transform="translate(75.31 548.5) rotate(-75.95)"/><circle class="cls-15" cx="378.86" cy="245.42" r="66.42" transform="matrix(0.25, -0.97, 0.97, 0.25, 46.06, 550.39)"/><circle class="cls-16" cx="393.55" cy="222.56" r="57.13" transform="translate(93.35 560.64) rotate(-77.89)"/><path class="cls-17" d="M261.18,218.17a.29.29,0,0,1-.3-.3.28.28,0,0,1,.28-.3h0a.32.32,0,0,1,.31.3.31.31,0,0,1-.3.31h0v0Zm-7.26-.15h0a.36.36,0,0,1-.21-.11.29.29,0,0,1-.07-.22.32.32,0,0,1,.32-.28h0a.3.3,0,0,1,.28.3v0A.31.31,0,0,1,253.92,218Zm14.53-.32a.31.31,0,0,1-.3-.27.32.32,0,0,1,.26-.33h0a.28.28,0,0,1,.34.26v0a.31.31,0,0,1-.27.3h-.06Zm-21.79-.46h-.07a.31.31,0,0,1-.24-.35.29.29,0,0,1,.34-.25h0a.3.3,0,0,1,.24.29V217A.32.32,0,0,1,246.66,217.24Zm29-.63a.29.29,0,0,1-.29-.24.31.31,0,0,1,0-.23.33.33,0,0,1,.19-.12h.09a.32.32,0,0,1,.3.24v.06a.28.28,0,0,1-.24.29h-.09Zm-36.14-.75h-.09a.28.28,0,0,1-.19-.13.38.38,0,0,1,0-.23.3.3,0,0,1,.37-.22h0a.32.32,0,0,1,.23.29v.07A.31.31,0,0,1,239.51,215.86Zm43.23-1a.31.31,0,0,1-.29-.22.29.29,0,0,1,.2-.36s0,0,0,0a.3.3,0,0,1,.37.2.2.2,0,0,1,0,.07.29.29,0,0,1-.2.29s0,0,0,0h-.11Zm-50.23-1s-.06,0-.1,0h0a.33.33,0,0,1-.19-.16.41.41,0,0,1,0-.22.32.32,0,0,1,.39-.2h0a.31.31,0,0,1,.21.29.34.34,0,0,1,0,.1A.32.32,0,0,1,232.51,213.86Zm57.14-1.26a.3.3,0,0,1-.27-.19.24.24,0,0,1,0-.23.25.25,0,0,1,.17-.16h0a.3.3,0,0,1,.38.17.36.36,0,0,1,0,.11.33.33,0,0,1-.19.29h0Zm-64-1.36a.27.27,0,0,1-.12,0h0a.31.31,0,0,1-.13-.4.29.29,0,0,1,.4-.14h0a.28.28,0,0,1,.18.28.2.2,0,0,1,0,.11A.31.31,0,0,1,225.69,211.24Zm70.65-1.54a.31.31,0,0,1-.28-.17.27.27,0,0,1,0-.23.22.22,0,0,1,.16-.17h0a.3.3,0,0,1,.4.13.33.33,0,0,1,0,.13.35.35,0,0,1-.17.28h0A.31.31,0,0,1,296.34,209.7Zm-77.2-1.63a.42.42,0,0,1-.15,0h0a.3.3,0,0,1-.15-.18.31.31,0,0,1,0-.23.3.3,0,0,1,.4-.12h0a.29.29,0,0,1,.16.26.28.28,0,0,1,0,.15A.29.29,0,0,1,219.14,208.07Zm83.61-1.84a.31.31,0,0,1-.27-.15.32.32,0,0,1,.11-.41h0a.32.32,0,0,1,.46.25.35.35,0,0,1-.14.27h0A.24.24,0,0,1,302.75,206.23Zm-89.88-1.9a.21.21,0,0,1-.15-.05h0l0,0a.29.29,0,0,1-.07-.41.3.3,0,0,1,.41-.09h0v0a.25.25,0,0,1,.14.24.37.37,0,0,1-.05.17A.33.33,0,0,1,212.87,204.33Zm96-2.1a.33.33,0,0,1-.25-.12.28.28,0,0,1,0-.23.3.3,0,0,1,.12-.2h0a.29.29,0,0,1,.41.06.26.26,0,0,1,.06.18.29.29,0,0,1-.12.24l0,0A.35.35,0,0,1,308.84,202.23ZM207,200.07a.28.28,0,0,1-.19-.07h0a.3.3,0,1,1,.37-.47h0a.34.34,0,0,1,.13.23.29.29,0,0,1-.08.19A.27.27,0,0,1,207,200.07Zm107.6-2.35a.31.31,0,0,1-.21-.53s0,0,0,0a.32.32,0,0,1,.43,0,.33.33,0,0,1,.06.19.27.27,0,0,1-.09.23h0A.27.27,0,0,1,314.56,197.72Zm-113.13-2.41a.31.31,0,0,1-.21-.07v0a.25.25,0,0,1-.1-.2.29.29,0,0,1,.09-.22.3.3,0,0,1,.42,0h0a.3.3,0,0,1,.1.22.44.44,0,0,1-.07.22A.34.34,0,0,1,201.43,195.31Zm118.45-2.59a.29.29,0,0,1-.22-.08.3.3,0,0,1,0-.42v0a.33.33,0,0,1,.44,0,.3.3,0,0,1,0,.43h0s0,0,0,0A.31.31,0,0,1,319.88,192.72Zm-123.56-2.61a.26.26,0,0,1-.21-.09l0,0a.3.3,0,0,1,.45-.4l0,0a.32.32,0,0,1,.08.2.34.34,0,0,1-.1.23A.31.31,0,0,1,196.32,190.11Zm128.43-2.8a.34.34,0,0,1-.19-.07.33.33,0,0,1-.11-.21.24.24,0,0,1,.07-.22v0h0a.31.31,0,0,1,.41,0,.28.28,0,0,1,.11.23.25.25,0,0,1-.07.19v0h0A.31.31,0,0,1,324.75,187.31Zm-133.07-2.82a.29.29,0,0,1-.23-.12l0,0a.31.31,0,0,1,.06-.43.32.32,0,0,1,.42.06v0a.23.23,0,0,1,.06.18.26.26,0,0,1-.12.24A.28.28,0,0,1,191.68,184.49Zm137.46-3a.26.26,0,0,1-.17,0,.28.28,0,0,1-.12-.19.24.24,0,0,1,0-.23h0a.3.3,0,0,1,.41-.09.33.33,0,0,1,.13.26.26.26,0,0,1-.05.17v0A.35.35,0,0,1,329.14,181.48Zm-141.59-3h0a.3.3,0,0,1-.26-.15v0a.23.23,0,0,1,0-.23.26.26,0,0,1,.13-.19.32.32,0,0,1,.41.1v0a.17.17,0,0,1,0,.14.31.31,0,0,1-.15.27A.33.33,0,0,1,187.55,178.5ZM333,175.32a.33.33,0,0,1-.15,0,.25.25,0,0,1-.14-.18.3.3,0,0,1,0-.23v0h0a.31.31,0,0,1,.4-.11.32.32,0,0,1,.12.41l0,0h0A.3.3,0,0,1,333,175.32Zm-149.09-3.16a.27.27,0,0,1-.25-.16h0l0,0a.31.31,0,0,1,.14-.41.33.33,0,0,1,.41.13v0a.25.25,0,0,1,0,.13.27.27,0,0,1-.15.25A.28.28,0,0,1,183.93,172.16Zm152.41-3.34-.12,0a.37.37,0,0,1-.16-.17.27.27,0,0,1,0-.23h0a.31.31,0,0,1,.41-.15.3.3,0,0,1,.17.27.31.31,0,0,1,0,.13h0A.32.32,0,0,1,336.34,168.82Zm-155.45-3.27a.31.31,0,0,1-.28-.2h0a.33.33,0,0,1,0-.24.3.3,0,0,1,.17-.16.31.31,0,0,1,.39.17v0a.18.18,0,0,1,0,.11.29.29,0,0,1-.18.27Zm158.21-3.47a.19.19,0,0,1-.1,0,.28.28,0,0,1-.18-.37v0a.33.33,0,0,1,.39-.18.31.31,0,0,1,.2.29.36.36,0,0,1,0,.1v0A.32.32,0,0,1,339.1,162.08Zm-160.68-3.39a.3.3,0,0,1-.29-.21v0s0,0,0,0a.45.45,0,0,1,0-.23.31.31,0,0,1,.18-.14.3.3,0,0,1,.38.19v0a.34.34,0,0,1,0,.1.31.31,0,0,1-.22.29Zm162.84-3.58h-.07a.29.29,0,0,1-.22-.37h0a.31.31,0,0,1,.38-.22.3.3,0,0,1,.23.29s0,.05,0,.07,0,0,0,0A.29.29,0,0,1,341.26,155.11Zm-164.7-3.47a.29.29,0,0,1-.3-.24h0a.37.37,0,0,1,0-.23.32.32,0,0,1,.2-.12.31.31,0,0,1,.36.23h0a.15.15,0,0,1,0,.06.29.29,0,0,1-.24.3ZM342.82,148h-.06a.28.28,0,0,1-.19-.12.28.28,0,0,1-.05-.22v0h0a.3.3,0,0,1,.6,0,.09.09,0,0,1,0,.05v0h0A.28.28,0,0,1,342.82,148Zm-167.51-3.53a.29.29,0,0,1-.3-.25v0a.29.29,0,0,1,.25-.33.29.29,0,0,1,.34.26v0s0,0,0,0a.32.32,0,0,1-.27.3Zm168.43-3.7h0a.3.3,0,0,1-.28-.32v0a.29.29,0,0,1,.33-.27.31.31,0,0,1,.28.31s0,0,0,0v0A.3.3,0,0,1,343.74,140.76Zm-169-3.56h0a.3.3,0,0,1-.3-.28h0a.31.31,0,0,1,.07-.22.39.39,0,0,1,.21-.11h0a.32.32,0,0,1,.32.29v0a.3.3,0,0,1-.29.29Zm169.36-3.71a.31.31,0,0,1-.31-.31v0h0s0-.05,0-.07a.18.18,0,0,1,0-.1v0a.31.31,0,0,1,.61,0v0a.17.17,0,0,1,0,.08.34.34,0,0,1,0,.1v0A.31.31,0,0,1,344.06,133.49Zm-169.39-3.57h0a.29.29,0,0,1-.29-.29v-.05a.31.31,0,0,1,.3-.29h0a.3.3,0,0,1,.29.31v0h0A.31.31,0,0,1,174.67,129.92ZM343.73,126a.3.3,0,0,1-.3-.27v0a.31.31,0,0,1,.28-.31.3.3,0,0,1,.32.28v0h0a.29.29,0,0,1-.26.31Zm-168.44-3.35s0,0,0,0a.28.28,0,0,1-.26-.29v0h0v0a.28.28,0,0,1,.33-.25.31.31,0,0,1,.27.33v0A.3.3,0,0,1,175.29,122.65Zm167.5-3.88a.28.28,0,0,1-.29-.24h0v-.05a.29.29,0,0,1,.26-.3.28.28,0,0,1,.34.24v0a.31.31,0,0,1-.24.35Zm-166.28-3.3h-.06a.32.32,0,0,1-.24-.3s0,0,0-.06h0v0a.31.31,0,0,1,.36-.22.35.35,0,0,1,.2.13.31.31,0,0,1,0,.23v0A.32.32,0,0,1,176.51,115.47Zm164.72-3.82a.28.28,0,0,1-.29-.21v0s0,0,0,0,0,0,0-.07a.3.3,0,0,1,.23-.3.33.33,0,0,1,.38.21v0h0a.31.31,0,0,1-.21.37Zm-162.87-3.24h-.09a.28.28,0,0,1-.18-.14.31.31,0,0,1,0-.23v0a.31.31,0,0,1,.38-.19.29.29,0,0,1,.2.37v0A.3.3,0,0,1,178.36,108.41Zm160.69-3.71a.3.3,0,0,1-.28-.2v0h0a.36.36,0,0,1,0-.1.27.27,0,0,1,.2-.28.3.3,0,0,1,.39.18s0,0,0,0a.3.3,0,0,1-.18.38Zm-158.24-3.15a.17.17,0,0,1-.11,0,.26.26,0,0,1-.19-.26.21.21,0,0,1,0-.12v0a.29.29,0,0,1,.38-.17.35.35,0,0,1,.17.17.31.31,0,0,1,0,.23v0A.33.33,0,0,1,180.81,101.55ZM336.28,98a.27.27,0,0,1-.26-.18l0,0h0a.25.25,0,0,1,0-.13.29.29,0,0,1,.18-.27.3.3,0,0,1,.4.15v0a.27.27,0,0,1,0,.23.28.28,0,0,1-.15.17A.23.23,0,0,1,336.28,98Zm-152.43-3a.32.32,0,0,1-.14,0,.31.31,0,0,1-.16-.27.25.25,0,0,1,0-.13v0a.33.33,0,0,1,.42-.13.3.3,0,0,1,.12.41h0A.31.31,0,0,1,183.85,94.92ZM333,91.49a.32.32,0,0,1-.27-.16h0v0a.26.26,0,0,1,0-.15.3.3,0,0,1,.16-.25.3.3,0,0,1,.41.12v0a.3.3,0,0,1-.11.41A.31.31,0,0,1,333,91.49Zm-145.5-2.92a.29.29,0,0,1-.16,0,.29.29,0,0,1-.14-.26.2.2,0,0,1,0-.15v0a.29.29,0,0,1,.41-.08.3.3,0,0,1,.1.41l0,0A.26.26,0,0,1,187.45,88.57Zm141.61-3.25a.33.33,0,0,1-.25-.13s0,0,0,0v0a.24.24,0,0,1-.05-.2.28.28,0,0,1,.12-.2.3.3,0,0,1,.42.08s0,0,0,0a.25.25,0,0,1,.05.22.24.24,0,0,1-.13.19A.25.25,0,0,1,329.06,85.32ZM191.57,82.57a.27.27,0,0,1-.17-.06.31.31,0,0,1-.13-.25.28.28,0,0,1,.06-.16s0,0,0,0,0,0,0,0a.31.31,0,0,1,.42,0,.3.3,0,0,1,.06.42l0,0A.26.26,0,0,1,191.57,82.57Zm133.09-3.06a.3.3,0,0,1-.23-.11l0,0a.33.33,0,0,1-.06-.19.32.32,0,0,1,.11-.24.31.31,0,0,1,.42,0h0a.31.31,0,0,1,0,.43A.35.35,0,0,1,324.66,79.51ZM196.2,76.93a.26.26,0,0,1-.19-.07.28.28,0,0,1-.11-.22.25.25,0,0,1,.09-.2v0a.3.3,0,0,1,.42,0,.29.29,0,0,1,0,.43l0,0A.32.32,0,0,1,196.2,76.93Zm123.58-2.84a.3.3,0,0,1-.22-.08v0a.24.24,0,0,1-.08-.2.33.33,0,0,1,.08-.22.33.33,0,0,1,.44,0v0a.3.3,0,0,1,0,.43A.29.29,0,0,1,319.78,74.09ZM201.31,71.72a.32.32,0,0,1-.23-.09.31.31,0,0,1,0-.43l0,0a.3.3,0,0,1,.41.45h0A.27.27,0,0,1,201.31,71.72Zm113.15-2.61a.31.31,0,0,1-.19-.06s0,0,0,0a.31.31,0,0,1-.11-.23.28.28,0,0,1,.08-.2.32.32,0,0,1,.43,0s0,0,0,0h0a.3.3,0,0,1,0,.42A.33.33,0,0,1,314.46,69.11ZM206.82,67a.3.3,0,0,1-.24-.11.37.37,0,0,1-.06-.21.32.32,0,0,1,.1-.22l0,0a.32.32,0,0,1,.42,0,.37.37,0,0,1,.07.23.3.3,0,0,1-.12.19l0,0A.28.28,0,0,1,206.82,67Zm101.91-2.35a.27.27,0,0,1-.17-.06h0a.28.28,0,0,1-.12-.23.39.39,0,0,1,.06-.18.31.31,0,0,1,.43-.07v0a.3.3,0,0,1,.07.42A.29.29,0,0,1,308.73,64.61Zm-96-1.92h0a.27.27,0,0,1-.25-.13.31.31,0,0,1,0-.18.27.27,0,0,1,.13-.24l0,0a.32.32,0,0,1,.42.09.3.3,0,0,1-.09.41s0,0,0,0A.3.3,0,0,1,212.73,62.69Zm89.9-2.08a.45.45,0,0,1-.16,0v0a.29.29,0,0,1-.15-.25.23.23,0,0,1,0-.16.32.32,0,0,1,.41-.12h0a0,0,0,0,0,0,0,.3.3,0,0,1,.09.41A.31.31,0,0,1,302.63,60.61ZM219,58.94a.33.33,0,0,1-.27-.15.8.8,0,0,1,0-.15.28.28,0,0,1,.16-.26s0,0,0,0h0a.31.31,0,0,1,.41.12.32.32,0,0,1-.12.42h0A.26.26,0,0,1,219,58.94Zm77.24-1.79-.14,0h0a.31.31,0,0,1-.18-.28.19.19,0,0,1,0-.12.3.3,0,0,1,.39-.15h0v0a.3.3,0,0,1,.14.4A.3.3,0,0,1,296.21,57.15Zm-70.69-1.41a.31.31,0,0,1-.28-.18.43.43,0,0,1,0-.11.31.31,0,0,1,.18-.29h0a.3.3,0,0,1,.4.16.29.29,0,0,1-.16.38l0,0A.23.23,0,0,1,225.52,55.74Zm64-1.47a.29.29,0,0,1-.1,0h0a.3.3,0,0,1-.2-.29.22.22,0,0,1,0-.11.32.32,0,0,1,.4-.17l0,0a.26.26,0,0,1,.16.15.36.36,0,0,1,0,.23A.31.31,0,0,1,289.51,54.27Zm-57.2-1.14a.33.33,0,0,1-.29-.21s0-.06,0-.09a.31.31,0,0,1,.21-.29h0a.3.3,0,0,1,.39.18.37.37,0,0,1,0,.23.3.3,0,0,1-.18.15h0A.15.15,0,0,1,232.31,53.13ZM282.59,52h-.07l0,0a.29.29,0,0,1-.23-.27s0-.06,0-.1a.31.31,0,0,1,.37-.21,0,0,0,0,1,0,0,.3.3,0,0,1,.2.37A.3.3,0,0,1,282.59,52Zm-43.28-.86a.32.32,0,0,1-.29-.24s0,0,0-.07a.3.3,0,0,1,.24-.28s0,0,0,0h0a.3.3,0,0,1,.37.21.35.35,0,0,1,0,.23.29.29,0,0,1-.19.15h-.1Zm36.2-.83a.08.08,0,0,1-.06,0h0a.29.29,0,0,1-.24-.29.07.07,0,0,1,0-.06.29.29,0,0,1,.35-.24h0a.3.3,0,0,1,.19.13.31.31,0,0,1,.05.23A.33.33,0,0,1,275.51,50.28Zm-29-.58a.31.31,0,0,1-.3-.26v0a.31.31,0,0,1,.25-.29h0a.37.37,0,0,1,.34.25.31.31,0,0,1-.06.23.34.34,0,0,1-.2.13h-.07Zm21.83-.5h-.06a.29.29,0,0,1-.26-.3v0a.29.29,0,0,1,.32-.26h0a.28.28,0,0,1,.2.1.38.38,0,0,1,.08.23A.33.33,0,0,1,268.3,49.2Zm-14.59-.29a.3.3,0,0,1-.3-.28h0a.3.3,0,0,1,.29-.31h0a.31.31,0,0,1,.3.29.33.33,0,0,1-.07.21.27.27,0,0,1-.21.1Zm7.32-.16h0a.29.29,0,0,1-.29-.29h0a.29.29,0,0,1,.3-.29h0a.28.28,0,0,1,.21.08.31.31,0,0,1,.09.22A.29.29,0,0,1,261,48.75Z"/><path class="cls-18" d="M257.59,210.54h0a.47.47,0,0,1-.48-.47.55.55,0,0,1,.5-.47h0a.4.4,0,0,1,.31.14.42.42,0,0,1,.13.33.47.47,0,0,1-.13.33A.46.46,0,0,1,257.59,210.54Zm7.2-.17h0a.46.46,0,0,1-.47-.43.53.53,0,0,1,.11-.34.51.51,0,0,1,.33-.17h.06a.47.47,0,0,1,.46.45l-.05,0h.06a.47.47,0,0,1-.42.48S264.8,210.37,264.79,210.37Zm-14.4-.31h-.07a.48.48,0,0,1-.42-.52.46.46,0,0,1,.52-.41h0a.46.46,0,0,1,.4.47v0A.48.48,0,0,1,250.39,210.06Zm21.54-.52a.47.47,0,0,1-.46-.4.46.46,0,0,1,.09-.35.42.42,0,0,1,.3-.18h0a.46.46,0,0,1,.53.38.12.12,0,0,1,0,.08.48.48,0,0,1-.4.47h-.1Zm-28.65-.65h-.12l0,0a.46.46,0,0,1-.33-.54.47.47,0,0,1,.55-.36h0a.48.48,0,0,1,.37.47.22.22,0,0,1,0,.08A.48.48,0,0,1,243.28,208.89ZM279,208a.46.46,0,0,1-.45-.35.4.4,0,0,1,.05-.35.44.44,0,0,1,.28-.22h0a.49.49,0,0,1,.58.34.45.45,0,0,1,0,.12.49.49,0,0,1-.35.46H279Zm-42.68-1-.14,0h0a.49.49,0,0,1-.28-.23.51.51,0,0,1,0-.36.48.48,0,0,1,.59-.32h0a.47.47,0,0,1-.15.92Zm49.56-1.19a.47.47,0,0,1-.18-.9l0,0a.49.49,0,0,1,.61.28.88.88,0,0,1,0,.16.46.46,0,0,1-.3.44h0A.29.29,0,0,1,285.86,205.87Zm-56.33-1.29-.18,0h0a.51.51,0,0,1-.26-.26.56.56,0,0,1,0-.36.47.47,0,0,1,.62-.24h0a.48.48,0,0,1,.26.61A.45.45,0,0,1,229.53,204.58Zm63-1.51a.5.5,0,0,1-.43-.26.47.47,0,0,1,.2-.63h0a.48.48,0,0,1,.63.21.48.48,0,0,1-.22.63h0A.45.45,0,0,1,292.51,203.07ZM223,201.48a.56.56,0,0,1-.23,0h0a.43.43,0,0,1-.23-.28.45.45,0,0,1,0-.36.48.48,0,0,1,.63-.2h0a.52.52,0,0,1,.25.42.43.43,0,0,1-.06.22A.47.47,0,0,1,223,201.48Zm75.82-1.83a.47.47,0,0,1-.41-.23.47.47,0,0,1,.17-.64h0a.48.48,0,0,1,.64.16.34.34,0,0,1,.06.24.44.44,0,0,1-.22.4h0A.45.45,0,0,1,298.85,199.65Zm-82-1.87a.53.53,0,0,1-.27-.08l0,0a.46.46,0,0,1-.12-.65.46.46,0,0,1,.65-.12h0a.44.44,0,0,1,.22.39.5.5,0,0,1-.08.26A.47.47,0,0,1,216.84,197.78Zm88-2.12a.45.45,0,0,1-.37-.19.46.46,0,0,1,.09-.65l0,0a.49.49,0,0,1,.65.11.45.45,0,0,1,.1.28.46.46,0,0,1-.2.37l0,0A.43.43,0,0,1,304.85,195.66ZM211,193.51a.57.57,0,0,1-.3-.1h0a.46.46,0,0,1-.07-.66.48.48,0,0,1,.66-.08v0a.51.51,0,0,1,.19.36.47.47,0,0,1-.48.47Zm99.44-2.39a.43.43,0,0,1-.35-.16.48.48,0,0,1,0-.67h0a.49.49,0,0,1,.66.05.41.41,0,0,1,.12.31.45.45,0,0,1-.15.34l0,0A.49.49,0,0,1,310.46,191.12Zm-104.83-2.4a.41.41,0,0,1-.32-.12h0a.49.49,0,0,1-.14-.33.51.51,0,0,1,.13-.34.48.48,0,0,1,.65,0l0,0h0a.68.68,0,0,1,.13.33.47.47,0,0,1-.14.34A.51.51,0,0,1,205.63,188.72Zm110-2.63a.43.43,0,0,1-.31-.14.45.45,0,0,1,0-.66h0a.47.47,0,0,1,.65,0,.5.5,0,0,1,.16.35.48.48,0,0,1-.13.31h0a0,0,0,0,1,0,0h0A.48.48,0,0,1,315.61,186.09ZM200.7,183.45a.46.46,0,0,1-.35-.16v0a.46.46,0,0,1,0-.66.48.48,0,0,1,.64,0s0,0,0,0h0a.45.45,0,0,1,.09.28.42.42,0,0,1-.16.36A.44.44,0,0,1,200.7,183.45Zm119.58-2.86a.48.48,0,0,1-.28-.1.44.44,0,0,1-.18-.31.46.46,0,0,1,.09-.36l0,0a.48.48,0,0,1,.65-.08.49.49,0,0,1,.19.38.5.5,0,0,1-.11.28v0A.51.51,0,0,1,320.28,180.59Zm-124-2.83a.44.44,0,0,1-.38-.21h0a.41.41,0,0,1-.08-.35.43.43,0,0,1,.19-.31.47.47,0,0,1,.65.12l0,0a.55.55,0,0,1,.07.25.47.47,0,0,1-.19.4A.61.61,0,0,1,196.29,177.76Zm128.12-3.09a.42.42,0,0,1-.24-.07.47.47,0,0,1-.21-.29A.46.46,0,0,1,324,174h0a.47.47,0,0,1,.64-.16.45.45,0,0,1,.21.41.4.4,0,0,1-.07.24,0,0,0,0,1,0,0s0,0,0,0A.42.42,0,0,1,324.41,174.67Zm-132-3a.48.48,0,0,1-.41-.22v0h0a.47.47,0,0,1,.82-.47v0a.49.49,0,0,1,.06.22.46.46,0,0,1-.23.42A.48.48,0,0,1,192.43,171.66ZM328,168.41a.43.43,0,0,1-.22-.06.48.48,0,0,1-.21-.63l0,0a.51.51,0,0,1,.64-.21.52.52,0,0,1,.25.44.41.41,0,0,1,0,.19v0h0A.5.5,0,0,1,328,168.41Zm-138.81-3.16a.46.46,0,0,1-.44-.28v0a.47.47,0,0,1,.86-.38v0a1.21,1.21,0,0,1,0,.18.49.49,0,0,1-.28.44A.45.45,0,0,1,189.17,165.25Zm141.77-3.43a.47.47,0,0,1-.17,0,.51.51,0,0,1-.28-.62v0a.48.48,0,0,1,.62-.25.45.45,0,0,1,.29.44.88.88,0,0,1,0,.16l0,0A.44.44,0,0,1,330.94,161.82Zm-144.43-3.28a.46.46,0,0,1-.44-.32v0a.48.48,0,0,1,0-.37.43.43,0,0,1,.27-.22.47.47,0,0,1,.59.26.2.2,0,0,1,0,0,.31.31,0,0,1,0,.13.46.46,0,0,1-.31.46A.76.76,0,0,1,186.51,158.54ZM333.26,155a.61.61,0,0,1-.13,0,.48.48,0,0,1-.33-.57,0,0,0,0,0,0,0h0a.47.47,0,0,1,.57-.32.45.45,0,0,1,.34.44.33.33,0,0,1,0,.14v0A.47.47,0,0,1,333.26,155Zm-148.76-3.4a.48.48,0,0,1-.46-.35v0a.5.5,0,0,1,.05-.36.42.42,0,0,1,.3-.2.47.47,0,0,1,.56.35h0a.22.22,0,0,1,0,.08.47.47,0,0,1-.36.48ZM334.93,148h-.09a.46.46,0,0,1-.37-.54v0a.47.47,0,0,1,.94.08s0,.07,0,.09a.06.06,0,0,1,0,0h0A.47.47,0,0,1,334.93,148Zm-151.77-3.45a.47.47,0,0,1-.47-.41v0a.47.47,0,0,1,.4-.53.48.48,0,0,1,.53.4v0s0,0,0,.06a.47.47,0,0,1-.41.46A.07.07,0,0,1,183.16,144.54Zm152.77-3.69h0a.48.48,0,0,1-.44-.51v0a.48.48,0,0,1,.51-.43.47.47,0,0,1,.42.46v.08A.47.47,0,0,1,335.93,140.85Zm-153.46-3.49a.47.47,0,0,1-.46-.45v0a.47.47,0,0,1,.45-.48h0a.46.46,0,0,1,.46.43s0,0,0,0v0a.49.49,0,0,1-.46.48Zm153.8-3.7a.47.47,0,0,1-.47-.48v0a.61.61,0,0,0,0-.22v0a.47.47,0,1,1,.94,0v0s0,.06,0,.1,0,.08,0,.12v0A.49.49,0,0,1,336.27,133.66Zm-153.8-3.51s0,0,0,0a.45.45,0,0,1-.45-.46v-.05a.47.47,0,0,1,.47-.45h0a.48.48,0,0,1,.46.49v0A.48.48,0,0,1,182.47,130.15Zm153.45-3.94a.47.47,0,0,1-.47-.44h0v-.05a.47.47,0,0,1,.93,0v0a.48.48,0,0,1-.42.51ZM183.12,123h-.06a.46.46,0,0,1-.41-.46v-.09a.51.51,0,0,1,.54-.41.47.47,0,0,1,.39.53v0A.48.48,0,0,1,183.12,123Zm151.77-3.91a.45.45,0,0,1-.46-.37v-.12a.47.47,0,0,1,.93-.09v0a.47.47,0,0,1-.37.55Zm-150.44-3.18-.11,0a.48.48,0,0,1-.37-.45.52.52,0,0,1,0-.11v0a.48.48,0,0,1,.57-.35.47.47,0,0,1,.35.57v0h0A.46.46,0,0,1,184.45,115.88Zm148.75-3.83a.47.47,0,0,1-.45-.32v0h0a.71.71,0,0,1,0-.14.46.46,0,0,1,.34-.45.49.49,0,0,1,.58.33v0a.47.47,0,0,1-.33.58ZM186.43,109a.29.29,0,0,1-.15,0,.46.46,0,0,1-.32-.43.3.3,0,0,1,0-.16v0a.47.47,0,0,1,.59-.29.46.46,0,0,1,.29.6v0A.46.46,0,0,1,186.43,109Zm144.44-3.72a.46.46,0,0,1-.44-.27v0a.47.47,0,0,1,0-.16.48.48,0,0,1,.3-.44.47.47,0,0,1,.61.25.45.45,0,0,1,0,.08.49.49,0,0,1-.27.56Zm-141.81-3a.53.53,0,0,1-.18,0,.49.49,0,0,1-.29-.45.61.61,0,0,1,0-.18v0a.47.47,0,0,1,.86.38l0,0A.46.46,0,0,1,189.06,102.24Zm138.83-3.57a.48.48,0,0,1-.42-.25v0s0,0,0,0a.32.32,0,0,1,0-.19.52.52,0,0,1,.25-.44.45.45,0,0,1,.28-.05h0l0,0h0a.43.43,0,0,1,.27.23h0a.48.48,0,0,1-.21.63A.38.38,0,0,1,327.89,98.67ZM192.31,95.8a.49.49,0,0,1-.23-.06.48.48,0,0,1-.23-.42.38.38,0,0,1,.06-.23s0,0,0,0a.49.49,0,0,1,.64-.17.47.47,0,0,1,.19.61.09.09,0,0,1,0,0A.46.46,0,0,1,192.31,95.8Zm132-3.38a.48.48,0,0,1-.38-.21l0,0a.44.44,0,0,1-.07-.24.47.47,0,0,1,.22-.42.49.49,0,0,1,.65.15v0a.46.46,0,0,1-.14.64A.54.54,0,0,1,324.31,92.42ZM196.15,89.7a.48.48,0,0,1-.26-.09.48.48,0,0,1-.21-.39.45.45,0,0,1,.09-.26v0a.47.47,0,0,1,.65-.12.49.49,0,0,1,.21.31.46.46,0,0,1-.09.34h0A.48.48,0,0,1,196.15,89.7Zm124-3.18a.51.51,0,0,1-.38-.18v0a.41.41,0,0,1-.1-.27.44.44,0,0,1,.19-.39.48.48,0,0,1,.65.08v0h0a.49.49,0,0,1-.08.66A.56.56,0,0,1,320.17,86.52ZM200.56,84a.53.53,0,0,1-.31-.11.56.56,0,0,1-.17-.32.45.45,0,0,1,.11-.34v0a.49.49,0,0,1,.67-.05.46.46,0,0,1,.17.32.53.53,0,0,1-.11.34h0a0,0,0,0,1,0,0A.46.46,0,0,1,200.56,84Zm114.93-3a.53.53,0,0,1-.35-.14v0a.41.41,0,0,1-.14-.31.46.46,0,0,1,.16-.35.48.48,0,0,1,.66,0h0a.46.46,0,0,1,0,.67A.44.44,0,0,1,315.49,81Zm-110-2.33a.44.44,0,0,1-.32-.15.38.38,0,0,1-.14-.34.43.43,0,0,1,.14-.32l0,0a.46.46,0,0,1,.65,0,.44.44,0,0,1,.14.33.41.41,0,0,1-.15.33h0A.46.46,0,0,1,205.45,78.7ZM310.31,76a.39.39,0,0,1-.31-.12h0a.44.44,0,0,1-.16-.35.45.45,0,0,1,.77-.35.05.05,0,0,1,0,0,.47.47,0,0,1,0,.65A.45.45,0,0,1,310.31,76Zm-99.48-2.11a.49.49,0,0,1-.36-.17.51.51,0,0,1-.11-.31.54.54,0,0,1,.18-.36l0,0a.48.48,0,0,1,.76.42.64.64,0,0,1-.18.32h0A.46.46,0,0,1,210.83,73.89Zm93.86-2.41a.53.53,0,0,1-.28-.1h0a.48.48,0,0,1-.11-.65.5.5,0,0,1,.67-.11.05.05,0,0,1,0,0v0s0,0,0,0a.47.47,0,0,1,.09.64A.49.49,0,0,1,304.69,71.48Zm-88.06-1.87a.45.45,0,0,1-.38-.21.51.51,0,0,1-.09-.26.47.47,0,0,1,.22-.39h0a.49.49,0,0,1,.66.12.48.48,0,0,1-.13.65l0,0A.5.5,0,0,1,216.63,69.61Zm82.05-2.11a.44.44,0,0,1-.24-.07h0a.49.49,0,0,1-.23-.4.42.42,0,0,1,.07-.24.48.48,0,0,1,.64-.17,0,0,0,0,0,0,0h0a.46.46,0,0,1,.15.64A.45.45,0,0,1,298.68,67.5Zm-75.87-1.62a.45.45,0,0,1-.41-.24.44.44,0,0,1-.06-.23.46.46,0,0,1,.23-.4l.05,0a.47.47,0,0,1,.63.19.46.46,0,0,1-.18.63l0,0A.42.42,0,0,1,222.81,65.88Zm69.52-1.77a.65.65,0,0,1-.21,0h0a.5.5,0,0,1-.27-.43.35.35,0,0,1,.05-.2.48.48,0,0,1,.63-.22h0a.47.47,0,0,1,.21.62A.48.48,0,0,1,292.33,64.11Zm-63-1.35a.45.45,0,0,1-.44-.29.58.58,0,0,1,0-.18.45.45,0,0,1,.28-.43h0a.46.46,0,0,1,.61.25.47.47,0,0,1-.25.62h0A.57.57,0,0,1,229.32,62.76Zm56.36-1.45-.17,0h0a.47.47,0,0,1-.31-.44.51.51,0,0,1,0-.17.48.48,0,0,1,.6-.28l0,0a.4.4,0,0,1,.27.24.47.47,0,0,1-.42.66Zm-49.61-1.05a.46.46,0,0,1-.44-.32.27.27,0,0,1,0-.15.46.46,0,0,1,.33-.45h0a.48.48,0,0,1,.6.31.51.51,0,0,1,0,.36.49.49,0,0,1-.28.23h0A.39.39,0,0,1,236.07,60.26Zm42.72-1.09-.11,0h0a.48.48,0,0,1-.28-.22.43.43,0,0,1-.05-.35.47.47,0,0,1,.57-.34h0a.47.47,0,0,1-.13.92ZM243,58.41a.48.48,0,0,1-.46-.37s0-.06,0-.1a.47.47,0,0,1,.37-.46h0a.48.48,0,0,1,.56.36.47.47,0,0,1-.36.56H243Zm28.7-.72-.07,0h0a.47.47,0,0,1-.39-.47v-.07a.49.49,0,0,1,.55-.39h0a.5.5,0,0,1,.39.55A.47.47,0,0,1,271.74,57.69Zm-21.59-.46a.45.45,0,0,1-.46-.41l0,0a.48.48,0,0,1,.43-.47l0,0a.48.48,0,0,1,.42.77.61.61,0,0,1-.31.18h-.08Zm14.42-.37h-.05a.48.48,0,0,1-.45-.48,0,0,0,0,1,0,0,.47.47,0,0,1,.5-.44h0a.47.47,0,0,1,.43.51A.46.46,0,0,1,264.57,56.86Zm-7.23-.15a.47.47,0,0,1-.47-.46.51.51,0,0,1,.13-.33.42.42,0,0,1,.33-.14h0v0a.46.46,0,0,1,.47.44.46.46,0,0,1-.45.49Z"/><path class="cls-19" d="M259.39,202.94h0a.64.64,0,0,1-.64-.63.64.64,0,0,1,.64-.64h0a.6.6,0,0,1,.66.64A.64.64,0,0,1,259.39,202.94Zm-7.22-.36h-.09a.74.74,0,0,1-.44-.24.75.75,0,0,1-.13-.46.64.64,0,0,1,.7-.57h0a.64.64,0,0,1,.57.63V202A.64.64,0,0,1,252.17,202.58Zm14.43,0A.63.63,0,0,1,266,202a.66.66,0,0,1,.14-.47.6.6,0,0,1,.43-.23h0a.64.64,0,0,1,.59.26.73.73,0,0,1,.11.3.74.74,0,0,1-.13.48.76.76,0,0,1-.42.23h-.1ZM245,201.46h-.13l-.09,0a.64.64,0,0,1-.42-.74.62.62,0,0,1,.75-.49h0a.64.64,0,0,1,.51.61.61.61,0,0,1,0,.14A.64.64,0,0,1,245,201.46Zm28.71,0a.63.63,0,0,1-.61-.51.66.66,0,0,1,.08-.47.7.7,0,0,1,.41-.28h0s0,0,0,0a.72.72,0,0,1,.43.07.64.64,0,0,1,.32.43.66.66,0,0,1-.49.76h-.17ZM238,199.6l-.18,0h0l-.09,0a.63.63,0,0,1-.34-.78.65.65,0,0,1,.75-.43l.08,0h0a.6.6,0,0,1,.42.6.68.68,0,0,1,0,.2A.66.66,0,0,1,238,199.6Zm42.7,0a.61.61,0,0,1-.6-.44.62.62,0,0,1,.35-.78.11.11,0,0,1,.07,0h0a.66.66,0,0,1,.8.42c0,.06,0,.12,0,.18a.65.65,0,0,1-.45.62h0A.51.51,0,0,1,280.73,199.57ZM231.27,197A.75.75,0,0,1,231,197h0a.69.69,0,0,1-.32-.37.58.58,0,0,1,0-.48.64.64,0,0,1,.83-.33h0a.61.61,0,0,1,.37.6.56.56,0,0,1-.05.25A.61.61,0,0,1,231.27,197Zm56.21,0a.64.64,0,0,1-.58-.39.63.63,0,0,1,.31-.83h0v0a.66.66,0,0,1,.83.33.62.62,0,0,1,.06.26.65.65,0,0,1-.37.59h0A.51.51,0,0,1,287.48,197Zm-62.66-3.24a.44.44,0,0,1-.22-.05h0l-.06,0a.12.12,0,0,0-.07,0,.64.64,0,0,1,.67-1.09l0,0s0,0,0,0a.64.64,0,0,1,.3.54.59.59,0,0,1-.08.32A.65.65,0,0,1,224.82,193.74Zm69.1-.06a.61.61,0,0,1-.54-.32.63.63,0,0,1,.21-.87s0,0,0,0h0a.66.66,0,0,1,.87.23.82.82,0,0,1,.09.34.68.68,0,0,1-.33.53l0,0A.59.59,0,0,1,293.92,193.68Zm-75.17-3.88a.68.68,0,0,1-.37-.12h0a.7.7,0,0,1-.26-.43.6.6,0,0,1,.12-.47.65.65,0,0,1,.89-.14h0a.63.63,0,0,1,.27.51.64.64,0,0,1-.64.65Zm81.24-.06a.63.63,0,0,1-.52-.27.6.6,0,0,1-.12-.47.7.7,0,0,1,.25-.41l0,0h0a.65.65,0,0,1,.88.14.59.59,0,0,1,.12.39.61.61,0,0,1-.25.49s0,0,0,0l0,0A.66.66,0,0,1,300,189.74Zm-86.86-4.5a.57.57,0,0,1-.42-.16s0,0,0,0a.61.61,0,0,1-.2-.44.58.58,0,0,1,.15-.45.66.66,0,0,1,.91,0v0a.63.63,0,0,1,.22.46.66.66,0,0,1-.17.44A.63.63,0,0,1,213.13,185.24Zm92.47-.06a.63.63,0,0,1-.47-.2.65.65,0,0,1,0-.9l0,0a.65.65,0,0,1,.9,0,.61.61,0,0,1,.17.43.64.64,0,0,1-.21.47h0s0,0,0,0A.67.67,0,0,1,305.6,185.18Zm-97.6-5a.59.59,0,0,1-.47-.22h0a.63.63,0,0,1,0-.9.66.66,0,0,1,.9,0v0a.57.57,0,0,1,.17.42.67.67,0,0,1-.2.47A.66.66,0,0,1,208,180.14Zm102.71-.07a.63.63,0,0,1-.42-.17.65.65,0,0,1-.05-.9l0,0a.64.64,0,0,1,1.11.42.64.64,0,0,1-.17.44l0,0h0A.63.63,0,0,1,310.71,180.07Zm-107.28-5.54a.64.64,0,0,1-.49-.25,0,0,0,0,1,0,0,.16.16,0,0,1,0-.07.63.63,0,0,1,.17-.84.65.65,0,0,1,.89.14v0a.59.59,0,0,1,.12.38.62.62,0,0,1-.25.51A.68.68,0,0,1,203.43,174.53Zm111.84-.08a.66.66,0,0,1-.37-.13.65.65,0,0,1-.26-.42.7.7,0,0,1,.12-.47l0,0a.66.66,0,0,1,.89-.14.61.61,0,0,1,.25.51.57.57,0,0,1-.11.39h0A.62.62,0,0,1,315.27,174.45Zm-115.78-6a.63.63,0,0,1-.55-.32l0,0a.69.69,0,0,1-.07-.49.71.71,0,0,1,.3-.38.64.64,0,0,1,.87.23l0,0a.62.62,0,0,1,.08.33.66.66,0,0,1-.31.55A.72.72,0,0,1,199.49,168.47Zm119.73-.09a.61.61,0,0,1-.31-.09.64.64,0,0,1-.24-.87h0v0a.64.64,0,1,1,1.11.64v0A.65.65,0,0,1,319.22,168.38Zm-123-6.35a.66.66,0,0,1-.59-.38l.06,0-.06,0a.65.65,0,0,1,0-.49.77.77,0,0,1,.34-.37.67.67,0,0,1,.84.32l0,0a.47.47,0,0,1,0,.24.62.62,0,0,1-.37.6A.6.6,0,0,1,196.19,162Zm126.32-.1a.53.53,0,0,1-.25-.05.63.63,0,0,1-.34-.36.62.62,0,0,1,0-.48v0h0a.67.67,0,0,1,.85-.31.66.66,0,0,1,.38.6.51.51,0,0,1-.07.24.69.69,0,0,1,0,.08A.66.66,0,0,1,322.51,161.93Zm-128.93-6.65a.62.62,0,0,1-.6-.44l0,0a.75.75,0,0,1,0-.49.68.68,0,0,1,.37-.32.66.66,0,0,1,.81.42v0a.39.39,0,0,1,0,.18.64.64,0,0,1-.64.65Zm131.53-.11a.58.58,0,0,1-.19,0,.64.64,0,0,1-.41-.81h0a.64.64,0,0,1,.81-.41.6.6,0,0,1,.43.6,1.5,1.5,0,0,1,0,.2v0A.62.62,0,0,1,325.11,155.17Zm-133.4-6.87h0a.63.63,0,0,1-.63-.51v0a.61.61,0,0,1,.08-.47.64.64,0,0,1,1.16.21v0a.66.66,0,0,1,0,.14.62.62,0,0,1-.49.62A.34.34,0,0,1,191.71,148.3ZM327,148.19h-.14a.7.7,0,0,1-.41-.28.66.66,0,0,1-.08-.47v0a.64.64,0,0,1,1.27.14s0,.09,0,.13v0A.63.63,0,0,1,327,148.19Zm-136.42-7a.64.64,0,0,1-.64-.57v0a.57.57,0,0,1,.13-.47.6.6,0,0,1,.44-.23.64.64,0,0,1,.7.57v.08a.63.63,0,0,1-.57.64ZM328.11,141H328a.63.63,0,0,1-.57-.7v0a.64.64,0,0,1,.7-.57.65.65,0,0,1,.58.63.17.17,0,0,1,0,.07v0A.63.63,0,0,1,328.11,141ZM190.2,133.93h0a.64.64,0,0,1-.64-.64v0a.64.64,0,1,1,1.27,0v0a.64.64,0,0,1-.39.6A.85.85,0,0,1,190.2,133.93Zm138.28-.12a.62.62,0,0,1-.64-.63v0a.2.2,0,0,1,0-.1.3.3,0,0,1,0-.12v0a.64.64,0,0,1,.63-.64.62.62,0,0,1,.64.63v0a.49.49,0,0,1,0,.12.57.57,0,0,1,0,.13v0A.63.63,0,0,1,328.48,133.81Zm-138-7.11h-.06a.65.65,0,0,1-.58-.64.35.35,0,0,0,0-.06v0h0a.64.64,0,0,1,.71-.57.6.6,0,0,1,.42.23.61.61,0,0,1,.14.47v0h0A.63.63,0,0,1,190.53,126.7Zm137.56-.37a.65.65,0,0,1-.65-.57v-.1a.64.64,0,0,1,1.27-.08h0v.09a.63.63,0,0,1-.56.65Zm-136.44-6.77h-.14a.67.67,0,0,1-.51-.63.27.27,0,0,1,0-.13v0a.63.63,0,1,1,1.24.27v0A.65.65,0,0,1,191.65,119.56Zm135.29-.38a.66.66,0,0,1-.62-.45s0,0,0-.08h0a.41.41,0,0,1,0-.11.62.62,0,0,1,.49-.63.66.66,0,0,1,.76.48h0s0,0,0,.07a.64.64,0,0,1-.5.71ZM193.5,112.56l-.2,0a.68.68,0,0,1-.45-.62c0-.07,0-.13,0-.19v0a.64.64,0,1,1,1.21.4v0h0A.63.63,0,0,1,193.5,112.56ZM325,112.2a.63.63,0,0,1-.61-.44h0a1.1,1.1,0,0,1,0-.18.62.62,0,0,1,.43-.62.64.64,0,0,1,.81.4l0,0a.67.67,0,0,1-.42.81A.46.46,0,0,1,325,112.2Zm-129-6.4h0a.58.58,0,0,1-.26-.06.11.11,0,0,1-.06,0,.65.65,0,0,1-.27-.81s0-.06,0-.09a.63.63,0,0,1,.81-.26.65.65,0,0,1,.32.84v0A.61.61,0,0,1,196.08,105.8Zm126.35-.34a.65.65,0,0,1-.58-.37v0a.63.63,0,0,1,.29-.84h0a.66.66,0,0,1,.85.31h0v0a.64.64,0,0,1-.32.84A.62.62,0,0,1,322.43,105.46ZM199.36,99.35a.63.63,0,0,1-.33-.09.62.62,0,0,1-.31-.54.64.64,0,0,1,.08-.33h0a.66.66,0,0,1,.88-.24.62.62,0,0,1,.22.87v0A.62.62,0,0,1,199.36,99.35ZM319.12,99a.63.63,0,0,1-.55-.32h0s0,0,0,0a.64.64,0,1,1,1.11-.64h0v0a.65.65,0,0,1-.23.87A.65.65,0,0,1,319.12,99ZM203.29,93.28a.71.71,0,0,1-.38-.12.69.69,0,0,1-.26-.51.59.59,0,0,1,.12-.39v0a.66.66,0,0,1,.89-.14.63.63,0,0,1,.15.89v0A.64.64,0,0,1,203.29,93.28ZM315.15,93a.6.6,0,0,1-.51-.27h0a.74.74,0,0,1-.12-.38.63.63,0,0,1,.26-.51.68.68,0,0,1,.89.12s0,0,0,0l-.05,0,.06,0a.6.6,0,0,1,.11.47.59.59,0,0,1-.26.42A.57.57,0,0,1,315.15,93ZM207.83,87.64a.61.61,0,0,1-.42-.17.58.58,0,0,1-.22-.45.68.68,0,0,1,.16-.44l0,0a.66.66,0,0,1,.9,0,.64.64,0,0,1,0,.9l0,0A.64.64,0,0,1,207.83,87.64Zm102.75-.27a.67.67,0,0,1-.46-.2l0,0v0a.58.58,0,0,1-.15-.41.63.63,0,0,1,.2-.47.66.66,0,0,1,.9,0s0,0,0,0l0,0,.06,0a.64.64,0,0,1-.06.9A.61.61,0,0,1,310.58,87.37Zm-97.64-4.85a.66.66,0,0,1-.48-.22.63.63,0,0,1-.17-.42.65.65,0,0,1,.22-.47v0a.68.68,0,0,1,.91.05.65.65,0,0,1,.16.46.7.7,0,0,1-.21.45h0A.61.61,0,0,1,212.94,82.52Zm92.5-.26a.58.58,0,0,1-.41-.15h0a0,0,0,0,0,0,0,.63.63,0,0,1-.2-.46.65.65,0,0,1,.17-.43.63.63,0,0,1,.89,0h0a.63.63,0,0,1-.44,1.11ZM218.54,78h-.12s0,0,0,0h-.07v-.07l0,.06h0a.82.82,0,0,1-.27-.22.71.71,0,0,1-.12-.38.62.62,0,0,1,.2-.44l.07-.07h0a.65.65,0,0,1,.9.14.64.64,0,0,1-.14.88l0,0A.71.71,0,0,1,218.54,78Zm81.27-.22a.65.65,0,0,1-.36-.12h0a.63.63,0,0,1-.26-.51.59.59,0,0,1,.12-.39.64.64,0,0,1,.89-.14h0a.76.76,0,0,1,.25.42.66.66,0,0,1-.64.74ZM224.6,74a.65.65,0,0,1-.55-.31.58.58,0,0,1-.09-.34.61.61,0,0,1,.31-.53h0s0,0,.08,0a.64.64,0,0,1,.6,1.13h0A.61.61,0,0,1,224.6,74Zm69.14-.18a.5.5,0,0,1-.3-.08l0,0a0,0,0,0,1,0,0,.64.64,0,0,1-.31-.53.63.63,0,0,1,.94-.57h0l0,.06,0,0a.63.63,0,0,1-.31,1.19ZM231,70.68a.64.64,0,0,1-.58-.38.71.71,0,0,1-.06-.25.65.65,0,0,1,.38-.59h0a.65.65,0,0,1,.85.33.63.63,0,0,1-.33.83h0A.58.58,0,0,1,231,70.68Zm56.25-.15a.7.7,0,0,1-.25,0h0a.64.64,0,0,1-.39-.61.57.57,0,0,1,.06-.24.64.64,0,0,1,.83-.33h0a.66.66,0,0,1,.34.36.6.6,0,0,1,0,.49A.61.61,0,0,1,287.28,70.53Zm-49.5-2.46h0a.64.64,0,0,1-.61-.45.57.57,0,0,1,0-.18.62.62,0,0,1,.43-.61l0,0a.66.66,0,0,1,.81.42.73.73,0,0,1,0,.48A.55.55,0,0,1,238,68h0A.41.41,0,0,1,237.78,68.07ZM280.53,68a.49.49,0,0,1-.21,0h0a.61.61,0,0,1-.44-.6.41.41,0,0,1,0-.16.08.08,0,0,1,0,0s0,0,0,0a.66.66,0,0,1,.77-.37h0a.64.64,0,0,1-.19,1.25Zm-35.78-1.78a.62.62,0,0,1-.61-.49.66.66,0,0,1,0-.14.6.6,0,0,1,.5-.62h0a.64.64,0,1,1,.28,1.24h-.17Zm28.78-.07h-.16a.67.67,0,0,1-.51-.63s0-.1,0-.13a.66.66,0,0,1,.77-.5h0a.66.66,0,0,1,.5.75A.67.67,0,0,1,273.53,66.1ZM251.9,65a.63.63,0,0,1-.63-.57V64.4a.62.62,0,0,1,.57-.63h.08a.63.63,0,0,1,.64.56A.64.64,0,0,1,252,65h-.1Zm14.47,0h-.08a.62.62,0,0,1-.57-.63v-.07a.64.64,0,0,1,.7-.57h0a.61.61,0,0,1,.42.23.67.67,0,0,1,.15.47A.65.65,0,0,1,266.37,65Zm-7.22-.36h0a.64.64,0,0,1-.64-.63.64.64,0,0,1,.64-.64h0a.65.65,0,0,1,.64.63.64.64,0,0,1-.19.46A.63.63,0,0,1,259.15,64.64Z"/><path class="cls-20" d="M261.18,195.3a.81.81,0,0,1-.08-1.61h.11a.81.81,0,0,1,.81.78v0a.8.8,0,0,1-.79.79h0l0-.06Zm-7.24-.21h-.09a.82.82,0,0,1-.55-.28.83.83,0,0,1-.18-.59.78.78,0,0,1,.87-.72h0a.8.8,0,0,1,.74.78v.09A.8.8,0,0,1,253.94,195.09Zm14.48-.43a.81.81,0,0,1-.15-1.6h.07a.82.82,0,0,1,.91.68v.12a.8.8,0,0,1-.67.78v0h-.15ZM246.76,194l-.17,0h-.06a.81.81,0,0,1-.59-.95.84.84,0,0,1,.95-.63l0,0a.8.8,0,0,1,.64.78,1,1,0,0,1,0,.17A.83.83,0,0,1,246.76,194Zm28.77-.88a.78.78,0,0,1-.77-.59.76.76,0,0,1,.07-.61.81.81,0,0,1,.49-.38h0a.79.79,0,0,1,1,.56.46.46,0,0,1,0,.2.76.76,0,0,1-.6.78s0,0-.06,0Zm-35.79-1a.88.88,0,0,1-.24,0h0l0,0a.8.8,0,0,1,.55-1.51h0a.83.83,0,0,1,.56.79.55.55,0,0,1-.05.24A.8.8,0,0,1,239.74,192.13Zm42.67-1.29a.83.83,0,0,1-.74-.51.8.8,0,0,1,.43-1h0a.83.83,0,0,1,1.06.43,1.13,1.13,0,0,1,.06.32.86.86,0,0,1-.51.74h0A1.13,1.13,0,0,1,282.41,190.84ZM233,189.4a.77.77,0,0,1-.33-.06h0l-.08-.05a.79.79,0,0,1-.32-1,.82.82,0,0,1,1.07-.38l0,0h0a.8.8,0,0,1-.38,1.52Zm56-1.69a.81.81,0,0,1-.38-1.51v0h0a.82.82,0,0,1,1.09.32.74.74,0,0,1,.11.39.84.84,0,0,1-.42.71l-.06,0A.74.74,0,0,1,289,187.71Zm-62.33-1.82a.72.72,0,0,1-.43-.12h0a.81.81,0,0,1-.25-1.11.84.84,0,0,1,1.11-.26l0,0h0a1.05,1.05,0,0,1,.28.31.8.8,0,0,1-.05.79A.78.78,0,0,1,226.63,185.89Zm68.48-2.06a.85.85,0,0,1-.66-.34.83.83,0,0,1-.14-.61.78.78,0,0,1,.32-.52h0a.82.82,0,0,1,1.12.18.79.79,0,0,1,.15.49.75.75,0,0,1-.32.62s0,0,0,0h0A.83.83,0,0,1,295.11,183.83Zm-74.39-2.17a.77.77,0,0,1-.5-.18h0a.81.81,0,0,1-.12-1.14.86.86,0,0,1,1.14-.12h0s0,0,0,0a.76.76,0,0,1,.3.61.81.81,0,0,1-.81.81Zm80-2.42a.79.79,0,0,1-.6-.26.82.82,0,0,1,0-1.13h0l0,0a.84.84,0,0,1,1.14.05.8.8,0,0,1,.21.54.82.82,0,0,1-.25.59h0v0A.88.88,0,0,1,300.75,179.24Zm-85.39-2.47a.79.79,0,0,1-.58-.25h0l0,0a.82.82,0,0,1,0-1.14.82.82,0,0,1,1.14,0h0s0,0,0,0a.74.74,0,0,1,.23.57.76.76,0,0,1-.24.57A.85.85,0,0,1,215.36,176.77ZM305.8,174a.74.74,0,0,1-.51-.19.78.78,0,0,1-.28-.56.8.8,0,0,1,.19-.58h0a.83.83,0,0,1,1.14-.08.77.77,0,0,1,.28.62.79.79,0,0,1-.2.51h0a0,0,0,0,1,0,0A.77.77,0,0,1,305.8,174Zm-95.2-2.75A.79.79,0,0,1,210,171h0a.87.87,0,0,1-.16-.61.8.8,0,0,1,1.42-.39l0,0a.79.79,0,0,1,.17.49.86.86,0,0,1-.31.65A.83.83,0,0,1,210.6,171.27Zm99.62-3a.74.74,0,0,1-.45-.15.82.82,0,0,1-.23-1.1l0,0a.81.81,0,0,1,1.11-.21.78.78,0,0,1,.34.52.76.76,0,0,1-.12.6l0,0h0A.85.85,0,0,1,310.22,168.26Zm-103.68-3a.82.82,0,0,1-.7-.4h0a.83.83,0,0,1,.27-1.12.86.86,0,0,1,1.12.28v0a.88.88,0,0,1,.11.42.81.81,0,0,1-.4.69A.83.83,0,0,1,206.54,165.26ZM313.93,162a.87.87,0,0,1-.38-.08.88.88,0,0,1-.4-.47.79.79,0,0,1,.07-.62h0v0a.81.81,0,0,1,1.08-.34.77.77,0,0,1,.44.7.68.68,0,0,1-.09.37v0h0A.76.76,0,0,1,313.93,162ZM203.2,158.8a.79.79,0,0,1-.73-.48h0a.8.8,0,0,1,.41-1.07.83.83,0,0,1,1.07.4v0a.8.8,0,0,1-.41,1.06A.78.78,0,0,1,203.2,158.8Zm113.67-3.46a.92.92,0,0,1-.29,0,.81.81,0,0,1-.47-1,.08.08,0,0,1,0,0h0a.83.83,0,0,1,1-.47.81.81,0,0,1,.52.76.92.92,0,0,1-.05.28v0A.81.81,0,0,1,316.87,155.34ZM200.65,152a.79.79,0,0,1-.76-.57v0a.8.8,0,0,1,1.53-.48l0,0h0a.93.93,0,0,1,0,.24.8.8,0,0,1-.57.76A.86.86,0,0,1,200.65,152ZM319,148.39a.55.55,0,0,1-.18,0,.79.79,0,0,1-.6-1v0a.81.81,0,0,1,1-.6.79.79,0,0,1,.61.77,1.27,1.27,0,0,1,0,.2v0A.81.81,0,0,1,319,148.39Zm-120-3.45h0a.8.8,0,0,1-.79-.67v0a.79.79,0,0,1,.64-.93.8.8,0,0,1,.94.64v0a.5.5,0,0,1,0,.17.81.81,0,0,1-.67.77A.36.36,0,0,1,198.94,144.94Zm121.32-3.7h-.09a.81.81,0,0,1-.53-.31.74.74,0,0,1-.17-.59v0a.83.83,0,0,1,.89-.72.8.8,0,0,1,.71.83.28.28,0,0,1,0,.08h0A.8.8,0,0,1,320.26,141.24Zm-122.18-3.52a.79.79,0,0,1-.8-.76v-.05a.81.81,0,0,1,1.62-.06v.06a.82.82,0,0,1-.76.81ZM320.69,134a.8.8,0,0,1-.8-.8v-.24h0v0a.81.81,0,0,1,1.61,0v0a.41.41,0,0,1,0,.11.53.53,0,0,1,0,.12v0A.81.81,0,0,1,320.69,134Zm-122.63-3.53h0a.8.8,0,0,1-.76-.81v0a.11.11,0,0,1,0-.06.77.77,0,0,1,.84-.73.81.81,0,0,1,.76.82s0,0,0,.05A.8.8,0,0,1,198.06,130.45Zm122.18-4a.81.81,0,0,1-.8-.7v0h0a.17.17,0,0,1,0-.07.81.81,0,0,1,.71-.83.82.82,0,0,1,.9.71v0a.82.82,0,0,1-.7.91ZM198.9,123.23h-.15a.79.79,0,0,1-.66-.77s0-.11,0-.16v0a.81.81,0,0,1,.93-.65.79.79,0,0,1,.66.89v.06A.81.81,0,0,1,198.9,123.23Zm120-3.89a.79.79,0,0,1-.77-.61v0h0a1.08,1.08,0,0,1,0-.19.83.83,0,0,1,.62-.77.8.8,0,0,1,1,.58v0a.81.81,0,0,1-.59,1Zm-118.35-3.18a.9.9,0,0,1-.23,0,.81.81,0,0,1-.57-.78.75.75,0,0,1,0-.24h0a.8.8,0,0,1,1-.54.82.82,0,0,1,.55,1l0,0A.8.8,0,0,1,200.58,116.16Zm116.21-3.76a.79.79,0,0,1-.73-.5l0,0h0a.92.92,0,0,1,0-.28.79.79,0,0,1,.52-.76.81.81,0,0,1,1,.47l0,0a.8.8,0,0,1-.48,1A.72.72,0,0,1,316.79,112.4Zm-113.7-3.06a.85.85,0,0,1-.31-.06.81.81,0,0,1-.48-.75.85.85,0,0,1,.06-.31v0a.81.81,0,0,1,1.49.64l0,0A.8.8,0,0,1,203.09,109.34Zm110.75-3.59a.81.81,0,0,1-.7-.38.16.16,0,0,0,0-.06v0a.77.77,0,0,1-.09-.36.79.79,0,0,1,.44-.7.82.82,0,0,1,1.09.34v0a.83.83,0,0,1,.05.62.81.81,0,0,1-.4.47A.8.8,0,0,1,313.84,105.75Zm-107.43-2.87a.72.72,0,0,1-.4-.12.79.79,0,0,1-.29-1.1v0a.84.84,0,0,1,1.1-.28.81.81,0,0,1,.29,1.1v0l-.09.11A.78.78,0,0,1,206.41,102.88Zm103.71-3.36a.8.8,0,0,1-.66-.36l0,0a.8.8,0,0,1-.14-.45.79.79,0,0,1,.35-.66.82.82,0,0,1,1.12.22s0,0,0,0h0a.82.82,0,0,1-.22,1.1A.88.88,0,0,1,310.12,99.52Zm-99.65-2.68a.84.84,0,0,1-.5-.17.79.79,0,0,1-.31-.65.73.73,0,0,1,.17-.47v0a.81.81,0,1,1,1.28,1h0A.82.82,0,0,1,210.47,96.84Zm95.23-3.08a.86.86,0,0,1-.6-.25l0,0a.78.78,0,0,1-.2-.56.8.8,0,0,1,1.42-.5h0a.8.8,0,0,1-.6,1.34Zm-90.5-2.43a.77.77,0,0,1-.56-.23.78.78,0,0,1-.24-.57.8.8,0,0,1,.22-.58l.07-.06a.82.82,0,0,1,1.09,0,.78.78,0,0,1,.24.56.81.81,0,0,1-.23.58h0A.87.87,0,0,1,215.2,91.33Zm85.41-2.77a.75.75,0,0,1-.52-.2l0,0h0a.77.77,0,0,1-.24-.58.68.68,0,0,1,.2-.54.82.82,0,0,1,1.14,0l0,0a.82.82,0,0,1,0,1.13A.81.81,0,0,1,300.61,88.56Zm-80.07-2.15a.81.81,0,0,1-.62-1.32A.63.63,0,0,0,220,85h0a.82.82,0,0,1,1.13.12.73.73,0,0,1,.17.58.75.75,0,0,1-.29.55h0l-.12.08A.8.8,0,0,1,220.54,86.41ZM295,84a.87.87,0,0,1-.45-.13l0,0h0a.82.82,0,0,1-.18-1.13.82.82,0,0,1,1.13-.19h0a.8.8,0,0,1,.19,1.12A.78.78,0,0,1,295,84Zm-68.52-1.83a.85.85,0,0,1-.69-.38.89.89,0,0,1-.12-.42.77.77,0,0,1,.37-.69.11.11,0,0,0,.05,0,.83.83,0,0,1,1.08.27.8.8,0,0,1-.24,1.11h0A.73.73,0,0,1,226.44,82.16Zm62.37-2a.73.73,0,0,1-.39-.09h0a.82.82,0,0,1-.43-.72.86.86,0,0,1,.1-.37.83.83,0,0,1,1.1-.33h0a.81.81,0,0,1,.32,1.1A.78.78,0,0,1,288.81,80.12Zm-56-1.49a.79.79,0,0,1-.81-.81.79.79,0,0,1,.44-.72h0a.85.85,0,0,1,1.08.37.82.82,0,0,1-.37,1.07l0,0A.79.79,0,0,1,232.79,78.63ZM282.23,77a.68.68,0,0,1-.27,0h0l0,0a.8.8,0,0,1-.48-.72.64.64,0,0,1,.06-.31.79.79,0,0,1,1-.45h0a.75.75,0,0,1,.45.42.83.83,0,0,1,0,.62A.79.79,0,0,1,282.23,77Zm-42.72-1.15a.79.79,0,0,1-.76-.54.69.69,0,0,1-.05-.28.82.82,0,0,1,.55-.75h0a.8.8,0,0,1,.53,1.52h0A.78.78,0,0,1,239.51,75.87Zm35.83-1.16a.57.57,0,0,1-.18,0h-.05a.79.79,0,0,1-.6-.78.69.69,0,0,1,0-.2.82.82,0,0,1,1-.58h0s0,0,0,0a.8.8,0,0,1-.23,1.57Zm-28.83-.77a.82.82,0,0,1-.79-.65.66.66,0,0,1,0-.15.8.8,0,0,1,.63-.79h0a.78.78,0,0,1,1,.62.82.82,0,0,1-.6,1h0A.47.47,0,0,1,246.51,73.94Zm21.71-.69-.11,0h0a.79.79,0,0,1-.67-.78v-.13a.8.8,0,0,1,.92-.67h0a.79.79,0,0,1,.68.9A.8.8,0,0,1,268.22,73.25Zm-14.52-.39a.83.83,0,0,1-.81-.74V72a.8.8,0,0,1,.74-.79h0a.81.81,0,0,1,.87.74.78.78,0,0,1-.18.58.77.77,0,0,1-.54.29h-.1Zm7.28-.24h0a.79.79,0,0,1-.78-.79v0A.8.8,0,0,1,261,71H261a.81.81,0,0,1,.79.82A.8.8,0,0,1,261,72.62Z"/><path class="cls-21" d="M257.59,187.68h0s0,0,0,0a1,1,0,0,1-.68-.31,1,1,0,0,1-.26-.7,1,1,0,0,1,1-.94h.05a1,1,0,0,1,.87.61h0a1,1,0,0,1,.06.33v0a1,1,0,0,1-.12.43A1,1,0,0,1,257.59,187.68Zm7.14-.24a1,1,0,0,1-1-.88,1,1,0,0,1,.21-.71,1,1,0,0,1,.67-.36h0a1,1,0,0,1,1.07.88v.09a1,1,0,0,1-.87,1h-.12ZM250.48,187h-.18a1,1,0,0,1-.81-1.11,1,1,0,0,1,1.09-.81h.06a1,1,0,0,1,.81,1,.76.76,0,0,1,0,.15A1,1,0,0,1,250.48,187Zm21.29-.72h0a1,1,0,0,1-.94-.75.94.94,0,0,1,.68-1.16l.05,0h0a1,1,0,0,1,1.17.73.61.61,0,0,1,0,.24,1.24,1.24,0,0,1-.11.42.94.94,0,0,1-.64.51h0A.85.85,0,0,1,271.77,186.26Zm-28.25-.92a.69.69,0,0,1-.28-.05h0l-.11,0a.94.94,0,0,1-.55-1.18,1,1,0,0,1,1.22-.64h0a1,1,0,0,1,.68.93.77.77,0,0,1-.05.29A1,1,0,0,1,243.52,185.34Zm35.08-1.21a1,1,0,0,1-.9-.62,1,1,0,0,1,0-.75,1,1,0,0,1,.54-.52h0a1,1,0,0,1,1.25.56,1.3,1.3,0,0,1,.08.34,1,1,0,0,1-.63.92h0A.78.78,0,0,1,278.6,184.13Zm-41.76-1.37a1,1,0,0,1-.42-.08l0,0a1,1,0,0,1-.46-1.28,1,1,0,0,1,1.29-.47h0a1,1,0,0,1,.54.87.81.81,0,0,1-.08.43A1,1,0,0,1,236.84,182.76Zm48.24-1.64a1,1,0,0,1-.84-.51,1,1,0,0,1,.35-1.29h0s0,0,0,0a1,1,0,0,1,1.33.39,1.16,1.16,0,0,1,.12.46,1,1,0,0,1-.51.86l0,0A1,1,0,0,1,285.08,181.12Zm-54.52-1.79a1,1,0,0,1-.53-.15h0a1,1,0,0,1-.44-.61,1.06,1.06,0,0,1,.13-.74,1,1,0,0,1,1.35-.29h0a1,1,0,0,1,.45.83.9.9,0,0,1-.15.51A1,1,0,0,1,230.56,179.33Zm60.56-2.07a.94.94,0,0,1-.79-.4,1,1,0,0,1,.17-1.33l0,0h0a1,1,0,0,1,1.36.2,1,1,0,0,1,.2.58,1,1,0,0,1-.39.78h0l0,0A.94.94,0,0,1,291.12,177.26Zm-66.33-2.17a1,1,0,0,1-.61-.22h0a1.07,1.07,0,0,1-.35-.68,1,1,0,0,1,.23-.7,1,1,0,0,1,1.38-.12h0a1,1,0,0,1,.34.76.92.92,0,0,1-.22.62A1,1,0,0,1,224.79,175.09Zm71.78-2.45a1,1,0,0,1-.68-1.66v0a1,1,0,0,1,1.66.71,1,1,0,0,1-.29.69l0,0A1,1,0,0,1,296.57,172.64Zm-76.93-2.51a.94.94,0,0,1-.71-.33h0a1,1,0,0,1,.07-1.38,1,1,0,0,1,1.34,0l.05.05a1,1,0,0,1,.25.65,1,1,0,0,1-1,1Zm81.73-2.79a1,1,0,0,1-.61-.21,1,1,0,0,1-.36-.65,1,1,0,0,1,.21-.71v0a1,1,0,0,1,1.74.59,1,1,0,0,1-.21.62l0,0A1,1,0,0,1,301.37,167.34Zm-86.16-2.82a1,1,0,0,1-.8-.41h0s0,0,0-.06a1,1,0,0,1,.27-1.32A1,1,0,0,1,216,163l0,0h0a1.08,1.08,0,0,1,.15.53,1,1,0,0,1-1,1Zm90.22-3.07a1.06,1.06,0,0,1-.5-.13,1,1,0,0,1-.44-.61.92.92,0,0,1,.09-.74h0v0a1,1,0,0,1,1.34-.34,1,1,0,0,1,.34,1.34l0,0A1,1,0,0,1,305.43,161.45Zm-93.89-3.07a.94.94,0,0,1-.85-.52s0,0,0,0l.05,0-.06,0a1,1,0,0,1,.43-1.31,1,1,0,0,1,1.31.43h0a1.07,1.07,0,0,1,.09.43,1,1,0,0,1-.53.88l0,0A.87.87,0,0,1,211.54,158.38Zm97.12-3.31a.82.82,0,0,1-.38-.09,1,1,0,0,1-.53-.53,1,1,0,0,1,0-.74l0,0a1,1,0,0,1,.21-.33h0a1,1,0,0,1,.4-.22h0a1,1,0,0,1,1.1,1.33v0A.94.94,0,0,1,308.66,155.07Zm-99.92-3.27a1,1,0,0,1-.92-.65v0a1,1,0,0,1,0-.74,1.07,1.07,0,0,1,.55-.5,1,1,0,0,1,1.25.6v0a1.27,1.27,0,0,1,.05.34,1,1,0,0,1-.66.89A.78.78,0,0,1,208.74,151.8ZM311,148.3a2,2,0,0,1-.27,0,1,1,0,0,1-.69-1.17s0,0,0,0h0a1,1,0,0,1,1.2-.69,1,1,0,0,1,.72,1,.93.93,0,0,1,0,.24l0,.06A1,1,0,0,1,311,148.3Zm-104.18-3.39a1,1,0,0,1-1-.78l0,0a1,1,0,0,1,.77-1.15,1,1,0,0,1,1.14.76l0,0a1,1,0,0,1-.76,1.15l-.2,0Zm105.59-3.61-.13,0a1,1,0,0,1-.84-1.06v-.06a1,1,0,0,1,1.1-.83,1,1,0,0,1,.85.94.92.92,0,0,1,0,.16h0A1,1,0,0,1,312.43,141.3Zm-106.56-3.49a1,1,0,0,1-1-.9v0a.92.92,0,0,1,.23-.7,1,1,0,0,1,.67-.34,1,1,0,0,1,1,.89.43.43,0,0,1,0,.05v0a1,1,0,0,1-.9,1Zm107-3.66h0a1,1,0,0,1-1-1v-.24a1,1,0,0,1,1-1,1,1,0,0,1,1,1v0a.28.28,0,0,1,0,.09.31.31,0,0,1,0,.1v0A1,1,0,0,1,312.9,134.15Zm-107-3.48h-.06a1,1,0,0,1-.9-1v-.11a.94.94,0,0,1,1-.87,1,1,0,0,1,.92,1v0A1,1,0,0,1,205.86,130.67Zm106.55-3.87a1,1,0,0,1-1-.83v-.08a.34.34,0,0,1,0-.1,1,1,0,0,1,.84-1,1,1,0,0,1,1,.5l0,0a0,0,0,0,0,0,0s0,0,0,0v0a0,0,0,0,0,0,0v0s0,0,0,0a0,0,0,0,0,0,0v.08a.18.18,0,0,0,0,.06h0s0,0,0,0a1,1,0,0,1-.83,1.1Zm-105.62-3.23-.19,0a1,1,0,0,1-.79-.94,1.06,1.06,0,0,1,0-.2.11.11,0,0,1,0,0,1,1,0,0,1,1.14-.73,1,1,0,0,1,.76,1.13v0A1,1,0,0,1,206.79,123.57ZM311,119.8a1,1,0,0,1-1-.71h0v0a1,1,0,0,1,0-.24,1,1,0,0,1,.66-.94h.05a1,1,0,0,1,1.2.67h0s0,0,0,0a1,1,0,0,1-.68,1.2Zm-102.3-3.14a.86.86,0,0,1-.32,0,1,1,0,0,1-.66-.91.91.91,0,0,1,.06-.32v0a1,1,0,0,1,1.24-.6,1,1,0,0,1,.61,1.23v0h0A1,1,0,0,1,208.67,116.66Zm99.93-3.6a1,1,0,0,1-.89-.57s0,0,0,0a1.23,1.23,0,0,1-.08-.38,1,1,0,0,1,1.87-.39v0A1,1,0,0,1,309,113,1,1,0,0,1,308.6,113.06Zm-97.15-3h0A1,1,0,0,1,211,110a1,1,0,0,1-.54-.88,1.19,1.19,0,0,1,.11-.42v0a1,1,0,0,1,1.31-.43,1,1,0,0,1,.44,1.27l0,.06A1,1,0,0,1,211.45,110.07Zm93.9-3.39a1,1,0,0,1-.84-.47v0a.78.78,0,0,1-.13-.51,1,1,0,0,1,.47-.83,1,1,0,0,1,1.33.34v0a1,1,0,0,1-.34,1.33A.83.83,0,0,1,305.35,106.68Zm-90.26-2.78a1,1,0,0,1-.56-.17,1,1,0,0,1-.42-.8,1,1,0,0,1,.18-.55v0h0a1,1,0,0,1,1.34-.25,1,1,0,0,1,.28,1.32.07.07,0,0,1,0,0A1,1,0,0,1,215.09,103.9Zm86.18-3.1a1,1,0,0,1-.74-.34l0,0v0a.91.91,0,0,1-.21-.61,1,1,0,0,1,1.72-.6h0l0,0a1,1,0,0,1-.18,1.34A1.05,1.05,0,0,1,301.27,100.8Zm-81.76-2.52a1,1,0,0,1-.72-1.62v0a1,1,0,0,1,1.38-.07,1,1,0,0,1,.07,1.37v0l0,0A1,1,0,0,1,219.51,98.28Zm76.95-2.77a1,1,0,0,1-.68-.27h0v0a1,1,0,0,1,0-1.37,1,1,0,0,1,1.37,0h0a1,1,0,0,1,0,1.38A.92.92,0,0,1,296.46,95.51ZM224.64,93.3a1,1,0,0,1-.74-.35.93.93,0,0,1-.23-.62,1,1,0,0,1,.34-.75h0a1,1,0,0,1,1.38.11,1,1,0,0,1,.23.7,1,1,0,0,1-.34.67l0,0A1,1,0,0,1,224.64,93.3ZM291,90.91a1,1,0,0,1-.52-.16l-.07,0a1,1,0,0,1-.4-.77,1,1,0,0,1,.2-.59,1,1,0,0,1,1.35-.21l0,0,0,0a1,1,0,0,1-.62,1.73ZM230.38,89h0a.92.92,0,0,1-.81-.44.9.9,0,0,1-.13-.73.89.89,0,0,1,.41-.6s0,0,0,0a.33.33,0,0,0,.1-.06,1,1,0,0,1,1.27.34,1,1,0,0,1-.29,1.36h-.05A.91.91,0,0,1,230.38,89Zm54.57-2a.93.93,0,0,1-.47-.11l0,0a1,1,0,0,1-.5-.85,1.12,1.12,0,0,1,.11-.47,1,1,0,0,1,1.33-.38h0a.91.91,0,0,1,.47.58,1,1,0,0,1-.93,1.24Zm-48.31-1.48a1,1,0,0,1-.88-.56,1,1,0,0,1-.1-.42,1,1,0,0,1,.56-.86h0a1,1,0,0,1,1.31.47,1,1,0,0,1-.47,1.29h0A1,1,0,0,1,236.64,85.58Zm41.81-1.51a.83.83,0,0,1-.34-.07h0a.93.93,0,0,1-.62-.92,1,1,0,0,1,.06-.33,1,1,0,0,1,1.25-.56h0a1,1,0,0,1,.57,1.26A1,1,0,0,1,278.45,84.07ZM243.3,83a1,1,0,0,1-.93-.68,1.36,1.36,0,0,1,0-.29,1,1,0,0,1,.67-.93h0a1,1,0,0,1,1.21.64,1,1,0,0,1-.64,1.22h0A.68.68,0,0,1,243.3,83Zm28.3-1a.82.82,0,0,1-.21,0h0a1,1,0,0,1-.74-.93.66.66,0,0,1,0-.24,1,1,0,0,1,1.17-.73h0a1,1,0,0,1,.61.45,1,1,0,0,1,.12.72A1,1,0,0,1,271.6,82Zm-21.33-.65a1,1,0,0,1-1-.81c0-.06,0-.11,0-.16a1,1,0,0,1,.79-1h.1a1,1,0,0,1,1.07.81,1,1,0,0,1-.77,1.11h-.21Zm14.29-.52h-.12a1,1,0,0,1-.89-1v-.09a1,1,0,0,1,1.06-.88h0a1,1,0,0,1,.88,1.06A1,1,0,0,1,264.56,80.8Zm-7.18-.22a1,1,0,0,1-1-.93V79.6a1,1,0,0,1,.93-.95h.07a1,1,0,0,1,0,1.94Z"/><path class="cls-22" d="M259.37,180.09h0a1.15,1.15,0,0,1-1.15-1.15,1.13,1.13,0,0,1,1.14-1.13h0a1.14,1.14,0,1,1,0,2.28Zm-7.16-.55a.47.47,0,0,1-.17,0H252a1.15,1.15,0,0,1-.9-1.29,1.13,1.13,0,0,1,1.27-1h.06a1.17,1.17,0,0,1,.75.46,1.21,1.21,0,0,1,.21.85A1.18,1.18,0,0,1,252.21,179.54Zm14.3,0a1.14,1.14,0,0,1-.93-1.81,1.22,1.22,0,0,1,.75-.46h.26a1.12,1.12,0,0,1,.55.18h0a1.17,1.17,0,0,1,.49.77.47.47,0,0,1,0,.17,1.15,1.15,0,0,1-1,1.14h-.2Zm-21.28-1.64a1.35,1.35,0,0,1-.35-.06h0a1.14,1.14,0,0,1-.66-.56,1.12,1.12,0,0,1-.06-.88,1.15,1.15,0,0,1,1.43-.73h0a1.16,1.16,0,0,1,.79,1.1,1,1,0,0,1-.06.34A1.13,1.13,0,0,1,245.23,177.88Zm28.26,0a1.12,1.12,0,0,1-1-1.65,1,1,0,0,1,.66-.57h0a1.16,1.16,0,0,1,1.44.72,1.43,1.43,0,0,1,.06.35,1.14,1.14,0,0,1-.8,1.1l-.09,0A1.33,1.33,0,0,1,273.49,177.85Zm-34.9-2.72a1.2,1.2,0,0,1-.52-.12h0a1.15,1.15,0,0,1-.49-1.54,1.16,1.16,0,0,1,1.51-.5l.05,0h0a1.14,1.14,0,0,1-.53,2.15Zm41.54,0a1.14,1.14,0,0,1-.52-2.15v0h0a1.19,1.19,0,0,1,1.54.5,1.15,1.15,0,0,1-.51,1.54h0l0,0A1.37,1.37,0,0,1,280.13,175.1Zm-47.67-3.71h0a1.24,1.24,0,0,1-.67-.22l0,0a1.17,1.17,0,0,1-.46-.74,1.14,1.14,0,0,1,1.8-1.1l0,0a1.17,1.17,0,0,1,.47.93,1.27,1.27,0,0,1-.22.67A1.18,1.18,0,0,1,232.46,171.39Zm53.78,0a1.12,1.12,0,0,1-.91-.47,1.14,1.14,0,0,1,.24-1.6h0a1.18,1.18,0,0,1,1.6.24,1.23,1.23,0,0,1,.21.67,1.13,1.13,0,0,1-.47.93h0A1.12,1.12,0,0,1,286.24,171.35ZM227,166.72h0a1.18,1.18,0,0,1-.81-.33v0a1.19,1.19,0,0,1-.34-.81,1.15,1.15,0,0,1,.34-.8,1.19,1.19,0,0,1,1.62,0v0a1.13,1.13,0,0,1,.34.81,1.1,1.1,0,0,1-.34.8s-.06.06-.08.09A1.13,1.13,0,0,1,227,166.72Zm64.71,0a1.1,1.1,0,0,1-.8-.33,1.14,1.14,0,0,1,0-1.58l.06-.06h0a1.17,1.17,0,0,1,1.61,0,1.14,1.14,0,0,1,0,1.62v0A1.18,1.18,0,0,1,291.7,166.68Zm-69.37-5.41a1.16,1.16,0,0,1-.92-.46h0a.35.35,0,0,0-.05-.08,1.12,1.12,0,0,1,.29-1.53,1.19,1.19,0,0,1,1.6.24v0a1.22,1.22,0,0,1,.21.69,1.16,1.16,0,0,1-.47.91A1.05,1.05,0,0,1,222.33,161.27Zm74-.05a1.05,1.05,0,0,1-.66-.22,1.11,1.11,0,0,1-.46-.75,1.09,1.09,0,0,1,.2-.84l0,0a1.15,1.15,0,0,1,1.85,1.35l0,0A1.13,1.13,0,0,1,296.36,161.22Zm-77.8-6.06a1.13,1.13,0,0,1-1-.63h0A1.16,1.16,0,0,1,218,153a1.18,1.18,0,0,1,1.54.5v0a1,1,0,0,1,.13.5,1.13,1.13,0,0,1-.62,1l-.1.05A1.16,1.16,0,0,1,218.56,155.16Zm81.58-.06a1.26,1.26,0,0,1-.54-.13,1.09,1.09,0,0,1-.55-.67,1.1,1.1,0,0,1,.06-.87h0a1.14,1.14,0,0,1,1.53-.49,1.12,1.12,0,0,1,.5,1.53h0A1.14,1.14,0,0,1,300.14,155.1Zm-84.34-6.57a1.15,1.15,0,0,1-1.09-.79h0a1.15,1.15,0,0,1,2.18-.72v0a1.13,1.13,0,0,1,.06.36,1.15,1.15,0,0,1-.79,1.08A1.34,1.34,0,0,1,215.8,148.53Zm87.08-.06a1,1,0,0,1-.35-.07,1.13,1.13,0,0,1-.74-1.43v0a1.15,1.15,0,0,1,1.44-.73,1.11,1.11,0,0,1,.79,1.1.89.89,0,0,1,0,.32v0s0,0,0,0A1.16,1.16,0,0,1,302.88,148.47Zm-88.77-6.92a1.11,1.11,0,0,1-.63-.19,1.13,1.13,0,0,1-.46-.61h0a.57.57,0,0,0,0-.14v0a.43.43,0,0,1,0-.05,1.16,1.16,0,0,1,1-1.26,1.17,1.17,0,0,1,1.3.91.17.17,0,0,0,0,.07c0,.05,0,.11,0,.17a1.14,1.14,0,0,1-1,1.14Zm90.45-.07h-.18a1.16,1.16,0,0,1-1-1.31l0,0h0a1.13,1.13,0,0,1,1.3-.95,1.15,1.15,0,0,1,1,1.13.55.55,0,0,1,0,.18.17.17,0,0,1,0,.07A1.15,1.15,0,0,1,304.56,141.48Zm-91-7.09h-.11a1.14,1.14,0,0,1-1-1.13v0a1.12,1.12,0,0,1,.33-.81,1.19,1.19,0,0,1,.81-.34,1.15,1.15,0,0,1,1.15,1.14v0a1.13,1.13,0,0,1-.34.82A1.16,1.16,0,0,1,213.54,134.39Zm91.58-.07a1.11,1.11,0,0,1-.81-.34,1.06,1.06,0,0,1-.33-.81h0v-.07s0-.06,0-.09v0a1.14,1.14,0,1,1,2.28,0v.21A1.14,1.14,0,0,1,305.12,134.32Zm-91-7.08h0l-.18,0a1.15,1.15,0,0,1-1-1.13,1,1,0,0,1,0-.17v-.06a1.13,1.13,0,0,1,1.29-.92,1.15,1.15,0,0,1,1,1.27.18.18,0,0,1,0,.06h0A1.15,1.15,0,0,1,214.08,127.24Zm90.46-.26a1.15,1.15,0,0,1-1.13-.92.2.2,0,0,0,0-.07.91.91,0,0,1,0-.17,1.14,1.14,0,0,1,2.27-.19h0a1.16,1.16,0,0,1-.94,1.32Zm-88.8-6.73a1.35,1.35,0,0,1-.35-.06,1.15,1.15,0,0,1-.8-1.07,1.35,1.35,0,0,1,.06-.35v0l0-.08a1.15,1.15,0,0,1,1.4-.68,1.13,1.13,0,0,1,.77,1.34l0,.12v0A1.15,1.15,0,0,1,215.74,120.25Zm87.1-.26a1.13,1.13,0,0,1-1.08-.77l0,0a1.34,1.34,0,0,1-.05-.49v0l0,0a1.14,1.14,0,0,1,.76-.92,1.18,1.18,0,0,1,1.43.69s0,0,0,0v0a1.14,1.14,0,0,1-.06.87,1.19,1.19,0,0,1-.67.57A1.39,1.39,0,0,1,302.84,120Zm-84.37-6.39a1.13,1.13,0,0,1-1.13-1.14,1,1,0,0,1,.12-.52l0-.08a1.18,1.18,0,0,1,1.5-.44,1.13,1.13,0,0,1,.52,1.49l0,.07-.05.09a0,0,0,0,0,0,0l-.06,0,0,0s0,0,0,0v0l0,.06v0l0,0h0v0h0l-.05,0A1.13,1.13,0,0,1,218.47,113.6Zm81.59-.22a1.14,1.14,0,0,1-1-.63h0a1.15,1.15,0,0,1-.09-.87,1.27,1.27,0,0,1,.57-.68,1.17,1.17,0,0,1,1.45.37.43.43,0,0,1,.09.13v0a1.14,1.14,0,0,1-.5,1.54A1.08,1.08,0,0,1,300.06,113.38Zm-77.84-5.91a1.1,1.1,0,0,1-.67-.22,1.08,1.08,0,0,1-.45-.75,1.1,1.1,0,0,1,.2-.84h0a1.17,1.17,0,0,1,1.6-.26,1.15,1.15,0,0,1,.29,1.54.2.2,0,0,0-.06.07v0l-.09.08,0,0,0,0h0A1.09,1.09,0,0,1,222.22,107.47Zm74.07-.2a1.16,1.16,0,0,1-.92-.46v0a1,1,0,0,1-.22-.68,1.12,1.12,0,0,1,.46-.91,1.17,1.17,0,0,1,1.6.25s0,0,.06.07a1.17,1.17,0,0,1-.29,1.54A1.22,1.22,0,0,1,296.29,107.27ZM226.87,102a1.14,1.14,0,0,1-.81-.34,1.25,1.25,0,0,1-.33-.81,1.14,1.14,0,0,1,.33-.8l0,0a1.17,1.17,0,0,1,1.62,0,1.13,1.13,0,0,1,0,1.6v0h0A1.11,1.11,0,0,1,226.87,102Zm64.74-.19h0a1.21,1.21,0,0,1-.81-.32h0v0a1.07,1.07,0,0,1-.34-.79,1.09,1.09,0,0,1,.34-.81,1.17,1.17,0,0,1,1.61,0v0h0a1.15,1.15,0,0,1,0,1.61A1.18,1.18,0,0,1,291.61,101.82Zm-59.28-4.49a1.17,1.17,0,0,1-.94-.47,1.15,1.15,0,0,1,.26-1.6h0a1.17,1.17,0,0,1,1.59.24,1.15,1.15,0,0,1-.25,1.6h0A1.12,1.12,0,0,1,232.33,97.33Zm53.81-.16a1.06,1.06,0,0,1-.67-.22h0A1.09,1.09,0,0,1,285,96a1.07,1.07,0,0,1,.21-.65,1.18,1.18,0,0,1,1.6-.27l0,0a1.14,1.14,0,0,1-.67,2.06Zm-47.71-3.63a1.17,1.17,0,0,1-1-.61,1.32,1.32,0,0,1-.12-.52,1.14,1.14,0,0,1,.62-1h0a1.16,1.16,0,0,1,1.54.5,1.12,1.12,0,0,1-.44,1.49.12.12,0,0,1-.07,0A1,1,0,0,1,238.43,93.54ZM280,93.43a1.07,1.07,0,0,1-.52-.12h0a1.12,1.12,0,0,1-.6-1,1,1,0,0,1,.12-.52,1.15,1.15,0,0,1,1.53-.51l.09,0a1.14,1.14,0,0,1-.58,2.12Zm-34.95-2.65A1.15,1.15,0,0,1,244,90a1.09,1.09,0,0,1-.06-.36,1.15,1.15,0,0,1,.78-1.08h0a1.17,1.17,0,0,1,1.44.73,1.19,1.19,0,0,1-.06.87,1.16,1.16,0,0,1-.67.56l0,0A1.41,1.41,0,0,1,245.06,90.78Zm28.3-.08a1.12,1.12,0,0,1-.35-.06h0a1.79,1.79,0,0,1-.24-.12,1.12,1.12,0,0,1-.54-1,1.55,1.55,0,0,1,0-.37,1.16,1.16,0,0,1,1.44-.73h0a1.15,1.15,0,0,1,.74,1.43A1.14,1.14,0,0,1,273.36,90.7ZM252,89.09a1.12,1.12,0,0,1-1.12-1,.55.55,0,0,1,0-.17,1.17,1.17,0,0,1,1-1.14H252a1.15,1.15,0,0,1,1.23,1,1.09,1.09,0,0,1-.2.84,1.11,1.11,0,0,1-.74.46h0Zm14.34,0a.5.5,0,0,1-.17,0h0a1.13,1.13,0,0,1-1-1.12,1,1,0,0,1,0-.18,1.16,1.16,0,0,1,1.28-1h0l.08,0a1.14,1.14,0,0,1-.24,2.26Zm-7.16-.54h0a1.14,1.14,0,1,1,0-2.28h0a1.14,1.14,0,0,1,0,2.28Z"/><path class="cls-23" d="M261.15,172.43a1.32,1.32,0,0,1-.06-2.63h0a1.33,1.33,0,0,1,1.37,1.25.17.17,0,0,1,0,.07,1.31,1.31,0,0,1-1.25,1.29h0v0Zm-7.2-.34h-.19a1.31,1.31,0,1,1,.36-2.6h0a1.31,1.31,0,0,1,1.11,1.47,1.17,1.17,0,0,1-.09.32,1.29,1.29,0,0,1-1.2.81Zm14.34-.69a1.31,1.31,0,0,1-1.27-1,1.32,1.32,0,0,1,1-1.59h0a1.33,1.33,0,0,1,1.57,1,1.43,1.43,0,0,1,0,.29,1.31,1.31,0,0,1-1,1.29h0A1.12,1.12,0,0,1,268.29,171.4Zm-21.35-1a1.48,1.48,0,0,1-.42-.07h0a1.33,1.33,0,0,1-.81-1.67,1.35,1.35,0,0,1,1.67-.81v0a1.28,1.28,0,0,1,.89,1.24,1.32,1.32,0,0,1-1.31,1.3ZM275.12,169a1.31,1.31,0,0,1-.54-2.5h0a1.34,1.34,0,0,1,1.74.65,1.11,1.11,0,0,1,.12.53,1.34,1.34,0,0,1-.76,1.2h0A1.43,1.43,0,0,1,275.12,169Zm-34.75-1.63a1.34,1.34,0,0,1-.66-.18l-.09-.06a1.31,1.31,0,0,1-.4-1.74,1.33,1.33,0,0,1,1.73-.51l.08.05a1.3,1.3,0,0,1,.65,1.13,1.34,1.34,0,0,1-.18.66A1.3,1.3,0,0,1,240.37,167.41Zm41-2a1.32,1.32,0,0,1-.77-2.37l0,0a1.34,1.34,0,0,1,1.82.31,1.31,1.31,0,0,1-.31,1.82.13.13,0,0,1-.06.05A1.39,1.39,0,0,1,281.37,165.43Zm-46.88-2.2a1.32,1.32,0,0,1-.85-.32h0a1.3,1.3,0,0,1-.13-1.85,1.34,1.34,0,0,1,1.8-.17s0,0,.07,0,0,0,0,0a1.31,1.31,0,0,1,.12,1.84A1.33,1.33,0,0,1,234.49,163.23Zm52.34-2.54a1.28,1.28,0,0,1-.91-.36,1.3,1.3,0,0,1,0-1.85v0a1.35,1.35,0,0,1,1.85-.05,1.32,1.32,0,0,1,.41,1,1.27,1.27,0,0,1-.36.89v0A1.35,1.35,0,0,1,286.83,160.69ZM229.5,158h0a1.32,1.32,0,0,1-1-.49h0a1.32,1.32,0,0,1,.2-1.85,1.35,1.35,0,0,1,1.85.21v0a1.25,1.25,0,0,1,.28.81,1.34,1.34,0,0,1-.49,1A1.3,1.3,0,0,1,229.5,158Zm61.8-3a1.3,1.3,0,0,1-1.15-1.94.28.28,0,0,1,.06-.09,1.32,1.32,0,0,1,1.8-.4,1.27,1.27,0,0,1,.61,1.1,1.4,1.4,0,0,1-.21.71h0a.1.1,0,0,1,0,.06A1.3,1.3,0,0,1,291.3,155ZM225.58,152h0a1.35,1.35,0,0,1-1.17-.72v0a1.32,1.32,0,0,1,.56-1.77,1.36,1.36,0,0,1,1.73.5.73.73,0,0,1,.05.09,1.24,1.24,0,0,1,.15.6,1.3,1.3,0,0,1-.71,1.16A1.28,1.28,0,0,1,225.58,152Zm69-3.34a1.25,1.25,0,0,1-.48-.1,1.3,1.3,0,0,1-.74-1.7v0a1.33,1.33,0,0,1,1.71-.72,1.22,1.22,0,0,1,.71.7,1.29,1.29,0,0,1,0,1h0v0A1.32,1.32,0,0,1,294.61,148.61Zm-71.73-3.37a1.29,1.29,0,0,1-1.25-.93l0,0a1.31,1.31,0,0,1,2.51-.77s0,0,0,.05v0a1.3,1.3,0,0,1-.89,1.61A1.14,1.14,0,0,1,222.88,145.24Zm73.76-3.56-.24,0a1.31,1.31,0,0,1-1-1.54v0a1.32,1.32,0,0,1,1.46-1h.1a1.31,1.31,0,0,1,1,1.54h0A1.31,1.31,0,0,1,296.64,141.68Zm-75.13-3.53a1.32,1.32,0,0,1-1.29-1h0a.43.43,0,0,1,0-.11v0a1.31,1.31,0,1,1,2.61-.26v.16a1.31,1.31,0,0,1-1.18,1.29Zm75.82-3.66a1.32,1.32,0,0,1-1.32-1.31V133a1.32,1.32,0,0,1,2.63,0v.19A1.3,1.3,0,0,1,297.33,134.49Zm-75.84-3.55h-.12a1.35,1.35,0,0,1-1.15-1h0a1.68,1.68,0,0,1,0-.45v0a1.31,1.31,0,0,1,2.61.27v.08A1.34,1.34,0,0,1,221.49,130.94Zm75.13-3.79a1.3,1.3,0,0,1-1.27-1,.11.11,0,0,1,0-.06h0a.72.72,0,0,1,0-.25,1.3,1.3,0,0,1,.4-.93h0a1.21,1.21,0,0,1,.64-.34,1.32,1.32,0,0,1,.92.16,1.25,1.25,0,0,1,.62.85v0a1.33,1.33,0,0,1-1,1.54Zm-73.78-3.31a1.14,1.14,0,0,1-.37,0,1.29,1.29,0,0,1-.9-1.59,0,0,0,0,1,0,0s0,0,0,0h0a1.34,1.34,0,0,1,1.62-.86,1.3,1.3,0,0,1,.88,1.62v0A1.3,1.3,0,0,1,222.84,123.84Zm71.72-3.62a1.32,1.32,0,0,1-1.17-.73.24.24,0,0,0-.05-.1,1.27,1.27,0,0,1-.08-.54v0h0v0s0-.07,0-.12v0h0a1.31,1.31,0,0,1,2.49-.23h0a.6.6,0,0,1,.06.19,1.31,1.31,0,0,1-.77,1.54A1.43,1.43,0,0,1,294.56,120.22Zm-69.05-3.09a1.32,1.32,0,0,1-1.32-1.31,1.42,1.42,0,0,1,.14-.6s0-.06.07-.1a1.33,1.33,0,0,1,1.71-.48,1.3,1.3,0,0,1,.66.76,1.33,1.33,0,0,1-.09,1v0A1.32,1.32,0,0,1,225.51,117.13Zm65.73-3.31a1.3,1.3,0,0,1-1.1-.59l0,0a1.3,1.3,0,0,1-.18-1,1.32,1.32,0,0,1,.56-.83,1.36,1.36,0,0,1,1.78.31.13.13,0,0,0,.05.07,0,0,0,0,0,0,0,1.33,1.33,0,0,1-.39,1.81A1.4,1.4,0,0,1,291.24,113.82Zm-61.84-2.77a1.32,1.32,0,0,1-.72-.21.31.31,0,0,1-.09-.07l0,0a1.28,1.28,0,0,1-.49-1,1.33,1.33,0,0,1,.28-.81l0,0a1.34,1.34,0,0,1,1.83-.22,1.31,1.31,0,0,1,.22,1.84h0A1.32,1.32,0,0,1,229.4,111.05Zm57.35-2.89a1.29,1.29,0,0,1-.94-.39v0a1.29,1.29,0,0,1-.38-.91,1.31,1.31,0,0,1,2.2-1l.05,0v0s0,0,0,0a1.3,1.3,0,0,1-.95,2.21Zm-52.38-2.35a1.31,1.31,0,0,1-1-.44,1.35,1.35,0,0,1-.32-1,1.29,1.29,0,0,1,.45-.89h0a1.35,1.35,0,0,1,1.85.12,1.31,1.31,0,0,1-.13,1.85h0s0,0,0,0A1.26,1.26,0,0,1,234.37,105.81Zm46.91-2.37a1.24,1.24,0,0,1-.75-.24h0a0,0,0,0,0,0,0,1.28,1.28,0,0,1-.55-1.06,1.25,1.25,0,0,1,.24-.76,1.31,1.31,0,0,1,1.17-.55,1.28,1.28,0,0,1,.65.23,0,0,0,0,1,0,0h0a1.31,1.31,0,0,1-.76,2.38Zm-41-1.83a1.31,1.31,0,0,1-1.12-.66,1.22,1.22,0,0,1-.18-.65,1.29,1.29,0,0,1,.64-1.12s0,0,0,0h0l0,0v-.06h0a1.33,1.33,0,0,1,1.76.48,1.31,1.31,0,0,1-.45,1.78h0v0h0A1.41,1.41,0,0,1,240.23,101.61ZM275,99.85a1.24,1.24,0,0,1-.53-.12h0a1.28,1.28,0,0,1-.69-.72,1.36,1.36,0,0,1,0-1,1.31,1.31,0,0,1,.66-.65,1.25,1.25,0,0,1,1.07,0l.06,0a1.32,1.32,0,0,1,.62,1.72A1.3,1.3,0,0,1,275,99.85Zm-28.22-1.27a1.3,1.3,0,0,1-1.24-.88,1.18,1.18,0,0,1-.07-.41,1.34,1.34,0,0,1,.88-1.26h.06a1.3,1.3,0,0,1,1.63.81,1.32,1.32,0,0,1-.81,1.67h0A1.21,1.21,0,0,1,246.79,98.58Zm21.39-1.07a1.08,1.08,0,0,1-.3,0h0a1.3,1.3,0,0,1-1-1.28,1,1,0,0,1,0-.29,1.32,1.32,0,0,1,1.58-1,.83.83,0,0,1,.15,0,1.31,1.31,0,0,1-.44,2.55Zm-14.38-.64h0a1.33,1.33,0,0,1-1.26-1,1,1,0,0,0,0-.17c0-.06,0-.13,0-.19a1.31,1.31,0,0,1,1.09-1.28h.1a1.32,1.32,0,0,1,1.45,1.11A1.31,1.31,0,0,1,254,96.84l0,0Zm7.24-.36H261a1.31,1.31,0,0,1-1.24-1.37,1.35,1.35,0,0,1,1.36-1.26h.09a1.31,1.31,0,0,1-.12,2.62Z"/><path class="cls-24" d="M257.61,164.8h-.11a1.48,1.48,0,0,1-1.39-1.56,1.46,1.46,0,0,1,1.56-1.39h0a1.48,1.48,0,0,1,1.39,1.56A1.48,1.48,0,0,1,257.61,164.8Zm7-.41a1.48,1.48,0,0,1-.35-2.92l.12,0a1.48,1.48,0,0,1,1.7,1.21.72.72,0,0,1,0,.25,1.47,1.47,0,0,1-1.22,1.45h0A.69.69,0,0,1,264.58,164.39Zm-13.88-.8a1.19,1.19,0,0,1-.42-.06h0a1.51,1.51,0,0,1-.88-.71,1.49,1.49,0,0,1-.11-1.13,1.5,1.5,0,0,1,1.84-1h0a1.49,1.49,0,0,1,1.05,1.44,1.94,1.94,0,0,1-.06.4A1.49,1.49,0,0,1,250.7,163.59Zm20.6-1.21a1.47,1.47,0,0,1-.59-2.83h0a1.51,1.51,0,0,1,1.95.77,1.87,1.87,0,0,1,.12.57,1.49,1.49,0,0,1-.89,1.37h0A1.43,1.43,0,0,1,271.3,162.38Zm-27-1.56a1.43,1.43,0,0,1-.74-.19s0,0,0,0h0a1.47,1.47,0,0,1-.51-2,1.52,1.52,0,0,1,2-.55h0a1.52,1.52,0,0,1,.73,1.29,1.46,1.46,0,0,1-1.47,1.47Zm33.11-1.95a1.48,1.48,0,0,1-1.2-.59,1.54,1.54,0,0,1-.27-1.1,1.45,1.45,0,0,1,.58-1,0,0,0,0,0,0,0h0a1.47,1.47,0,0,1,2.36,1.2,1.45,1.45,0,0,1-.59,1.17l0,0A1.36,1.36,0,0,1,277.37,158.87Zm-38.75-2.23a1.49,1.49,0,0,1-1-.4h0a0,0,0,0,0,0,0,1.48,1.48,0,0,1-.06-2.09,1.52,1.52,0,0,1,2.09-.07v0a1.48,1.48,0,0,1-1,2.55Zm43.84-2.58a1.42,1.42,0,0,1-.94-.35,1.47,1.47,0,0,1-.18-2.08h0a1.51,1.51,0,0,1,2.08-.18,1.47,1.47,0,0,1,.53,1.14,1.53,1.53,0,0,1-.35.94l-.06,0,.05,0A1.46,1.46,0,0,1,282.46,154.06Zm-48.34-2.78a1.5,1.5,0,0,1-1.24-.66s0,0,0,0a1.47,1.47,0,0,1,.41-2,1.53,1.53,0,0,1,2,.39l0,0h0v0a1.48,1.48,0,0,1,.24.82,1.5,1.5,0,0,1-.67,1.22A1.42,1.42,0,0,1,234.12,151.28Zm52.21-3.07a1.57,1.57,0,0,1-.67-.16,1.49,1.49,0,0,1-.66-2v0a1.48,1.48,0,0,1,2.81.65,1.44,1.44,0,0,1-.16.67h0a.39.39,0,0,0-.06.11A1.5,1.5,0,0,1,286.33,148.21ZM231,145a1.47,1.47,0,0,1-1.38-1v0a1.48,1.48,0,0,1,.88-1.9,1.51,1.51,0,0,1,1.89.88v0a1.49,1.49,0,0,1,.08.5,1.47,1.47,0,0,1-1,1.4A1.44,1.44,0,0,1,231,145Zm57.79-3.4h0a2.19,2.19,0,0,1-.36,0,1.5,1.5,0,0,1-1.1-1.77s0,0,0,0a1.48,1.48,0,0,1,1.77-1.09,1.47,1.47,0,0,1,1.14,1.44,1.32,1.32,0,0,1,0,.34v0A1.47,1.47,0,0,1,288.74,141.62Zm-59.41-3.42v0a1.49,1.49,0,0,1-1.48-1.3v0a1.5,1.5,0,0,1,.32-1.09,1.45,1.45,0,0,1,1-.54,1.47,1.47,0,0,1,1.64,1.29v0h0a1.09,1.09,0,0,1,0,.18,1.53,1.53,0,0,1-.61,1.2h0a1.39,1.39,0,0,1-.66.24Zm60.2-3.54h0a1.48,1.48,0,0,1-1.47-1.48v0a.13.13,0,0,1,0-.06s0,0,0,0h0a1.48,1.48,0,1,1,3,0v.15A1.49,1.49,0,0,1,289.53,134.66Zm-60.21-3.47h-.17a1.45,1.45,0,0,1-1.27-1.1v0a1.28,1.28,0,0,1,0-.27v0c0-.06,0-.13,0-.19v0a1.49,1.49,0,0,1,1.65-1.29,1.47,1.47,0,0,1,1.29,1.63v0h0v0A1.48,1.48,0,0,1,229.32,131.19Zm59.39-3.62a1.48,1.48,0,0,1-1.44-1.13v0a1.48,1.48,0,0,1,2.88-.68v0a1.55,1.55,0,0,1-.18,1.12,1.53,1.53,0,0,1-.92.67A2,2,0,0,1,288.71,127.57Zm-57.8-3.21a1.31,1.31,0,0,1-.51-.09,1.45,1.45,0,0,1-1-1.37,1.08,1.08,0,0,1,.08-.51v0a1.53,1.53,0,0,1,1.9-.89,1.48,1.48,0,0,1,.88,1.9v0A1.49,1.49,0,0,1,230.91,124.36ZM286.29,121a1.47,1.47,0,0,1-1.31-.8l0,0a1.38,1.38,0,0,1-.15-.67,1.45,1.45,0,0,1,.81-1.32,1.51,1.51,0,0,1,2,.65s0,0,0,0a1.48,1.48,0,0,1-.65,2A1.44,1.44,0,0,1,286.29,121ZM234,118.1a1.51,1.51,0,0,1-1.47-1.5,1.44,1.44,0,0,1,.24-.8h0a1.51,1.51,0,0,1,2-.44,1.49,1.49,0,0,1,.43,2.06s0,0,0,0A1.5,1.5,0,0,1,234,118.1Zm48.38-2.95a1.44,1.44,0,0,1-1.13-.52h0a0,0,0,0,0,0,0,1.53,1.53,0,0,1-.33-1,1.47,1.47,0,0,1,.52-1.12,1.53,1.53,0,0,1,2.07.17,0,0,0,0,1,0,0h0l.05.06a1.48,1.48,0,0,1-1.18,2.37Zm-43.88-2.43a1.47,1.47,0,0,1-1.47-1.49,1.4,1.4,0,0,1,.45-1.06l.06,0,0,0a1.48,1.48,0,0,1,2,2.15l0,0A1.45,1.45,0,0,1,238.54,112.72Zm38.77-2.37a1.43,1.43,0,0,1-.88-.29h0a1.49,1.49,0,0,1-.59-1.18,1.5,1.5,0,0,1,.29-.89,1.53,1.53,0,0,1,2.06-.32s0,0,0,0l.1.07a1.48,1.48,0,0,1-1,2.6Zm-33.16-1.84a1.48,1.48,0,0,1-1.28-.74,1.54,1.54,0,0,1-.2-.73,1.52,1.52,0,0,1,.73-1.29h.06a1.5,1.5,0,0,1,2,.54,1.48,1.48,0,0,1-.53,2h0A1.36,1.36,0,0,1,244.15,108.51Zm27.08-1.66a1.6,1.6,0,0,1-.53-.09l-.06,0h0a1.47,1.47,0,0,1-.9-1.36,1.4,1.4,0,0,1,.12-.58,1.51,1.51,0,0,1,1.94-.78h0a1.48,1.48,0,0,1-.59,2.83Zm-20.65-1.14a1.47,1.47,0,0,1-1.41-1,1.53,1.53,0,0,1-.08-.45,1.5,1.5,0,0,1,1.06-1.4l0,0a1.53,1.53,0,0,1,1.84,1,1.45,1.45,0,0,1-.12,1.12,1.53,1.53,0,0,1-.87.73h0A1.42,1.42,0,0,1,250.58,105.71Zm13.93-.85h-.18l-.1,0A1.47,1.47,0,0,1,263,103.4a2.45,2.45,0,0,1,0-.27,1.48,1.48,0,0,1,1.71-1.2h0a1.35,1.35,0,0,1,.95.61,1.43,1.43,0,0,1,.26,1.1A1.47,1.47,0,0,1,264.51,104.86Zm-7-.39a1.47,1.47,0,0,1-1.47-1.38s0-.06,0-.08a1.48,1.48,0,0,1,1.39-1.49h.12a1.48,1.48,0,0,1,.08,3h-.11Z"/><path class="cls-25" d="M259.36,157.23h-.05a1.62,1.62,0,0,1-1.15-.47,1.67,1.67,0,0,1-.48-1.18,1.65,1.65,0,0,1,1.64-1.64h0a1.63,1.63,0,0,1,1.64,1.61v0A1.65,1.65,0,0,1,259.36,157.23Zm-6.94-1.09a1.51,1.51,0,0,1-.51-.08h0a1.75,1.75,0,0,1-1-.82,1.72,1.72,0,0,1-.1-1.26,1.66,1.66,0,0,1,2.07-1h0a1.62,1.62,0,0,1,1.13,1.58,1.68,1.68,0,0,1-.07.5A1.65,1.65,0,0,1,252.42,156.14Zm13.83,0a1.65,1.65,0,0,1-.57-3.19l.09,0a1.68,1.68,0,0,1,2.07,1.07,1.56,1.56,0,0,1,.08.48,1.64,1.64,0,0,1-1.13,1.59h0A1.75,1.75,0,0,1,266.25,156.14ZM246.17,153a1.69,1.69,0,0,1-1-.31h0a1.64,1.64,0,0,1-.36-2.3,1.67,1.67,0,0,1,2.29-.36h0s0,0,0,0a1.6,1.6,0,0,1,.67,1.34,1.71,1.71,0,0,1-.3,1A1.67,1.67,0,0,1,246.17,153Zm26.33,0a1.65,1.65,0,0,1-1.05-2.91.18.18,0,0,1,.09-.06v0a1.7,1.7,0,0,1,2.31.35,1.65,1.65,0,0,1,.32,1,1.7,1.7,0,0,1-.68,1.35s0,0,0,0A1.57,1.57,0,0,1,272.5,153ZM241.21,148a1.63,1.63,0,0,1-1.33-.67.05.05,0,0,1,0,0,1.64,1.64,0,0,1,.36-2.28,1.68,1.68,0,0,1,2.25.29l.06.07h0v0a1.61,1.61,0,0,1-.36,2.28A1.63,1.63,0,0,1,241.21,148Zm36.25,0a1.62,1.62,0,0,1-1-.31,1.64,1.64,0,0,1-.36-2.3h0a1.72,1.72,0,0,1,2.31-.36,1.69,1.69,0,0,1,.67,1.35,1.82,1.82,0,0,1-.31,1v0A1.68,1.68,0,0,1,277.46,148ZM238,141.77a1.63,1.63,0,0,1-1.56-1.14h0l0-.05a1.64,1.64,0,0,1,3.12-1,.13.13,0,0,1,0,.08,1.59,1.59,0,0,1,.08.53,1.61,1.61,0,0,1-1.13,1.53A1.52,1.52,0,0,1,238,141.77Zm42.65,0h0a1.83,1.83,0,0,1-.52-.09,1.65,1.65,0,0,1-1.05-2.08h0a1.66,1.66,0,0,1,2.07-1.06,1.61,1.61,0,0,1,1.13,1.58,1.68,1.68,0,0,1-.07.5h0A1.64,1.64,0,0,1,280.66,141.76Zm-43.75-6.91h0a1.64,1.64,0,0,1-1.65-1.64v0a1.69,1.69,0,0,1,.47-1.16,1.72,1.72,0,0,1,1.18-.48,1.64,1.64,0,0,1,1.64,1.64v0a1.63,1.63,0,0,1-.48,1.16A1.68,1.68,0,0,1,236.91,134.85Zm44.84,0a1.66,1.66,0,0,1-1.65-1.66v-.08h0a1.67,1.67,0,0,1,1.65-1.66,1.65,1.65,0,0,1,1.64,1.64v.12A1.65,1.65,0,0,1,281.75,134.83ZM238,127.91a1.77,1.77,0,0,1-.5-.07,1.64,1.64,0,0,1-1.14-1.58,1.61,1.61,0,0,1,.07-.49s0,0,0,0a1.67,1.67,0,0,1,2.07-1,1.64,1.64,0,0,1,1.07,2.06l0,0A1.63,1.63,0,0,1,238,127.91Zm42.67-.09a1.65,1.65,0,0,1-1.55-1.09.14.14,0,0,1,0-.07,1.54,1.54,0,0,1-.09-.52,1.63,1.63,0,0,1,1.12-1.55,1.67,1.67,0,0,1,2.08,1h0a.48.48,0,0,1,.05.14,1.65,1.65,0,0,1-1.09,2A1.43,1.43,0,0,1,280.65,127.82Zm-39.5-6.16a1.62,1.62,0,0,1-1.64-1.65,1.64,1.64,0,0,1,.31-1l.06,0,0,0a1.66,1.66,0,0,1,3,.7,1.64,1.64,0,0,1-.29,1.22h0s0,0,0,0h0v0A1.67,1.67,0,0,1,241.15,121.66Zm36.28-.08a1.62,1.62,0,0,1-1.26-.61.6.6,0,0,1-.08-.08,1.69,1.69,0,0,1-.32-1,1.73,1.73,0,0,1,.68-1.32,1.7,1.7,0,0,1,2.3.36,1.3,1.3,0,0,1,.1.15,1.63,1.63,0,0,1-.44,2.16A1.61,1.61,0,0,1,277.43,121.58Zm-31.32-4.89a1.63,1.63,0,0,1-1.33-.67,1.62,1.62,0,0,1-.33-1,1.65,1.65,0,0,1,.68-1.31h0a1.7,1.7,0,0,1,2.31.35,1.65,1.65,0,0,1-.28,2.24l-.09.07A1.57,1.57,0,0,1,246.11,116.69Zm26.35-.06a1.6,1.6,0,0,1-1-.31h0a1.62,1.62,0,0,1-.67-1.36,1.63,1.63,0,0,1,2.6-1.31h0a1.65,1.65,0,0,1-1,3Zm-20.13-3.14a1.66,1.66,0,0,1-1.56-1.14,1.53,1.53,0,0,1-.08-.52,1.64,1.64,0,0,1,1.12-1.54l0,0,.17,0a1.64,1.64,0,0,1,.94,3.14l-.09,0A1.49,1.49,0,0,1,252.33,113.49Zm13.88,0a1.79,1.79,0,0,1-.51-.07h0a1.64,1.64,0,0,1-1.14-1.58,1.41,1.41,0,0,1,.09-.49,1.66,1.66,0,0,1,2.07-1.06h0a1.66,1.66,0,0,1,1.06,2.08A1.64,1.64,0,0,1,266.21,113.45Zm-6.92-1.07h0a1.64,1.64,0,0,1-1.64-1.65,1.69,1.69,0,0,1,.47-1.16,1.63,1.63,0,0,1,1.17-.48h0a1.65,1.65,0,0,1,0,3.29Z"/><path class="cls-26" d="M261.07,149.51a1.8,1.8,0,0,1-1.78-1.61,1.77,1.77,0,0,1,.37-1.33,1.72,1.72,0,0,1,1.21-.68h0a1.81,1.81,0,0,1,2,1.58,1.76,1.76,0,0,1-1.57,2h-.07Zm-6.91-.85a1.94,1.94,0,0,1-.63-.11h0a1.82,1.82,0,0,1-1.06-2.35,1.87,1.87,0,0,1,2.35-1.05h0a1.82,1.82,0,0,1,1.16,1.72,1.88,1.88,0,0,1-.11.62A1.81,1.81,0,0,1,254.16,148.66ZM267.63,147a1.84,1.84,0,0,1-1.49-.79,1.81,1.81,0,0,1,.35-2.44.63.63,0,0,0,.12-.1,1.89,1.89,0,0,1,2.53.46,1.92,1.92,0,0,1,.32,1,1.85,1.85,0,0,1-.78,1.51h0A1.81,1.81,0,0,1,267.63,147Zm-19.24-2.34a1.86,1.86,0,0,1-1.36-.61s0,0,0,0a1.76,1.76,0,0,1-.45-1.3,1.81,1.81,0,0,1,.61-1.25,1.85,1.85,0,0,1,2.56.16h0a1.85,1.85,0,0,1-.16,2.56A1.83,1.83,0,0,1,248.39,144.69Zm23.89-2.9a1.93,1.93,0,0,1-.85-.2,1.84,1.84,0,0,1-.76-2.46l0,0a1.86,1.86,0,0,1,2.45-.76,1.81,1.81,0,0,1,.76,2.45l0,.06A1.82,1.82,0,0,1,272.28,141.79Zm-27.16-3.3a1.79,1.79,0,0,1-1.76-1.36s0,0,0,0a1.82,1.82,0,0,1,1.33-2.19,1.84,1.84,0,0,1,2.2,1.33h0a1.85,1.85,0,0,1,.05.46,1.79,1.79,0,0,1-1.38,1.74A1.54,1.54,0,0,1,245.12,138.49ZM274,135h0a1.83,1.83,0,0,1-1.81-1.83v-.07a1.81,1.81,0,0,1,3.62,0v.09A1.82,1.82,0,0,1,274,135Zm-28.86-3.51a1.55,1.55,0,0,1-.42-.05,1.81,1.81,0,0,1-1.39-1.77,2.55,2.55,0,0,1,.05-.41.29.29,0,0,1,0-.13,1.81,1.81,0,0,1,3.49,1v0A1.8,1.8,0,0,1,245.1,131.49Zm27.18-3.35a1.82,1.82,0,0,1-1.61-1v0h0a1.64,1.64,0,0,1-.2-.87,1.79,1.79,0,0,1,1-1.58,1.84,1.84,0,0,1,2.45.75h0a1.78,1.78,0,0,1,.13,1.39,1.89,1.89,0,0,1-.88,1.08A2,2,0,0,1,272.28,128.14Zm-23.94-2.85a1.8,1.8,0,0,1-1.8-1.83,1.79,1.79,0,0,1,.45-1.18l0,0a1.87,1.87,0,0,1,2.56-.16,1.81,1.81,0,0,1,.18,2.54l0,0A1.77,1.77,0,0,1,248.34,125.29Zm19.29-2.38a1.77,1.77,0,0,1-1-.32h0a1.82,1.82,0,0,1-.48-2.52,1.86,1.86,0,0,1,2.53-.46h0a1.79,1.79,0,0,1,.46,2.51A1.77,1.77,0,0,1,267.63,122.91ZM254.1,121.3a1.82,1.82,0,0,1-1.69-1.17,1.73,1.73,0,0,1-.12-.67,1.79,1.79,0,0,1,1.14-1.67h0l.13,0a1.84,1.84,0,0,1,2.23,1.08,1.8,1.8,0,0,1-1.06,2.34h0A2,2,0,0,1,254.1,121.3Zm7-.86h-.24a1.81,1.81,0,0,1-1.59-1.78,1.93,1.93,0,0,1,0-.23,1.83,1.83,0,0,1,2-1.59l.14,0a1.84,1.84,0,0,1,1.48,2A1.82,1.82,0,0,1,261.07,120.44Z"/><circle class="cls-27" cx="243.21" cy="162.19" r="84.39"/><circle class="cls-28" cx="261.88" cy="133.16" r="72.58"/><circle class="cls-29" cx="342.75" cy="71.99" r="19.8"/><circle class="cls-30" cx="347.13" cy="65.18" r="17.03" transform="translate(7.17 160.96) rotate(-26.37)"/><circle class="cls-31" cx="346.33" cy="65.88" r="12.79"/><circle class="cls-32" cx="179.33" cy="251.37" r="16.96" transform="translate(-98.62 385.87) rotate(-80.32)"/><circle class="cls-33" cx="183.08" cy="245.53" r="14.59"/><circle class="cls-34" cx="182.4" cy="246.13" r="7.43"/><circle class="cls-35" cx="256.8" cy="280.6" r="50.62"/><circle class="cls-36" cx="268" cy="263.19" r="43.54"/><circle class="cls-37" cx="265.97" cy="264.98" r="30.2" transform="translate(-53.64 461.97) rotate(-76.54)"/><circle class="cls-38" cx="427.54" cy="88.96" r="20.13"/><circle class="cls-39" cx="432" cy="82.03" r="17.32"/><circle class="cls-40" cx="432" cy="82.03" r="24.9"/><circle class="cls-41" cx="28.48" cy="96.37" r="28.48" transform="translate(-59.8 48.36) rotate(-45)"/><circle class="cls-42" cx="34.78" cy="86.57" r="24.49"/><circle class="cls-43" cx="32.48" cy="89.55" r="12.16"/><circle class="cls-44" cx="353.77" cy="130.59" r="8.16" transform="translate(149.11 447.33) rotate(-77.39)"/><circle class="cls-45" cx="310.25" cy="195.3" r="16.19"/><circle class="cls-46" cx="183.08" cy="98.76" r="20.12" transform="translate(53.91 261.8) rotate(-79.96)"/><g class="cls-47"><path class="cls-48" d="M374,107.59h0a1.18,1.18,0,0,1,0-1.65l6.25-6.25a1.16,1.16,0,0,1,1.65,0h0a1.16,1.16,0,0,1,0,1.65l-6.25,6.25A1.18,1.18,0,0,1,374,107.59Z"/><path class="cls-49" d="M374,99.69h0a1.16,1.16,0,0,1,1.65,0l6.25,6.25a1.16,1.16,0,0,1,0,1.65h0a1.18,1.18,0,0,1-1.65,0L374,101.34A1.18,1.18,0,0,1,374,99.69Z"/></g><g class="cls-50"><path class="cls-51" d="M212,213.88h0a2.4,2.4,0,0,1,0-3.4l12.89-12.88a2.4,2.4,0,0,1,3.4,0h0a2.4,2.4,0,0,1,0,3.4l-12.89,12.88A2.4,2.4,0,0,1,212,213.88Z"/><path class="cls-52" d="M212,197.6h0a2.4,2.4,0,0,1,3.4,0l12.89,12.88a2.4,2.4,0,0,1,0,3.4h0a2.4,2.4,0,0,1-3.4,0L212,201A2.4,2.4,0,0,1,212,197.6Z"/></g><g class="cls-50"><path class="cls-53" d="M421.59,144.4h0a2.4,2.4,0,0,1,0-3.4l12.89-12.89a2.4,2.4,0,0,1,3.4,0h0a2.42,2.42,0,0,1,0,3.4L425,144.4A2.42,2.42,0,0,1,421.59,144.4Z"/><path class="cls-54" d="M421.59,128.11h0a2.4,2.4,0,0,1,3.4,0L437.88,141a2.42,2.42,0,0,1,0,3.4h0a2.42,2.42,0,0,1-3.4,0l-12.89-12.89A2.4,2.4,0,0,1,421.59,128.11Z"/></g><circle class="cls-55" cx="29.64" cy="124.84" r="28.1"/></g></g></g></g></svg>